<svg width="92" height="92" viewBox="0 0 92 92" fill="none" xmlns="http://www.w3.org/2000/svg">
<path fill-rule="evenodd" clip-rule="evenodd" d="M46 5.75C45.2375 5.75 44.5063 6.0529 43.9671 6.59207C43.4279 7.13123 43.125 7.8625 43.125 8.625L43.125 76.4347L25.0355 58.3395C24.4957 57.7996 23.7635 57.4964 23 57.4964C22.2366 57.4964 21.5044 57.7996 20.9645 58.3395C20.4247 58.8793 20.1214 59.6115 20.1214 60.375C20.1214 61.1384 20.4247 61.8706 20.9645 62.4105L43.9645 85.4105C44.2316 85.6782 44.5489 85.8906 44.8981 86.0356C45.2474 86.1805 45.6219 86.2551 46 86.2551C46.3782 86.2551 46.7526 86.1805 47.1019 86.0356C47.4512 85.8906 47.7685 85.6782 48.0355 85.4105L71.0355 62.4105C71.3028 62.1432 71.5149 61.8258 71.6595 61.4766C71.8042 61.1273 71.8787 60.753 71.8787 60.375C71.8787 59.6115 71.5754 58.8793 71.0355 58.3395C70.4957 57.7996 69.7635 57.4964 69 57.4964C68.2366 57.4964 67.5044 57.7996 66.9645 58.3395L48.875 76.4347L48.875 8.625C48.875 7.8625 48.5721 7.13123 48.033 6.59207C47.4938 6.0529 46.7625 5.75 46 5.75Z" fill="#F5F6F6"/>
</svg>
