<svg width="181" height="33" viewBox="0 0 181 33" fill="none" xmlns="http://www.w3.org/2000/svg">
<path d="M17.28 0.0671387H14.72V12.977L5.59134 3.84831L3.78114 5.65851L12.9098 14.7871H0V17.3471H12.9098L3.78118 26.4758L5.59137 28.286L14.72 19.1573V32.0671H17.28V19.1574L26.4086 28.2859L28.2188 26.4757L19.0902 17.3471H32V14.7871H19.0902L28.2188 5.65854L26.4086 3.84835L17.28 12.9769V0.0671387Z" fill="#E94B26"/>
<path d="M52.63 23.0671L48.44 8.60714H50.58L53.64 19.5871L56.74 8.60714H58.38L61.48 19.5871L64.58 8.60714H66.71L62.48 23.0671H60.6L57.55 12.3371L54.46 23.0671H52.63ZM71.8736 23.2671C70.9069 23.2671 70.0636 23.0605 69.3436 22.6471C68.6236 22.2271 68.0636 21.6205 67.6636 20.8271C67.2636 20.0338 67.0636 19.0738 67.0636 17.9471C67.0636 16.8605 67.2536 15.9105 67.6336 15.0971C68.0136 14.2838 68.5603 13.6538 69.2736 13.2071C69.9936 12.7538 70.8636 12.5271 71.8836 12.5271C72.8569 12.5271 73.7003 12.7405 74.4136 13.1671C75.1269 13.5871 75.6803 14.2038 76.0736 15.0171C76.4669 15.8238 76.6636 16.8005 76.6636 17.9471C76.6636 18.9938 76.4803 19.9171 76.1136 20.7171C75.7469 21.5171 75.2069 22.1438 74.4936 22.5971C73.7869 23.0438 72.9136 23.2671 71.8736 23.2671ZM71.8836 21.6171C72.4769 21.6171 72.9703 21.4638 73.3636 21.1571C73.7569 20.8438 74.0536 20.4071 74.2536 19.8471C74.4536 19.2805 74.5536 18.6271 74.5536 17.8871C74.5536 17.2005 74.4636 16.5771 74.2836 16.0171C74.1103 15.4505 73.8269 15.0005 73.4336 14.6671C73.0469 14.3338 72.5303 14.1671 71.8836 14.1671C71.2903 14.1671 70.7903 14.3205 70.3836 14.6271C69.9836 14.9271 69.6836 15.3571 69.4836 15.9171C69.2836 16.4705 69.1836 17.1271 69.1836 17.8871C69.1836 18.5605 69.2736 19.1805 69.4536 19.7471C69.6336 20.3138 69.9203 20.7671 70.3136 21.1071C70.7136 21.4471 71.2369 21.6171 71.8836 21.6171ZM79.0008 23.0671V12.7271H81.0508V14.8471C81.2241 14.3405 81.4641 13.9171 81.7708 13.5771C82.0841 13.2305 82.4474 12.9705 82.8608 12.7971C83.2741 12.6171 83.7108 12.5271 84.1708 12.5271C84.3108 12.5271 84.4441 12.5371 84.5708 12.5571C84.6974 12.5705 84.7974 12.5971 84.8708 12.6371V14.6971C84.7841 14.6571 84.6708 14.6305 84.5308 14.6171C84.3974 14.6038 84.2808 14.5938 84.1808 14.5871C83.7274 14.5538 83.3141 14.5771 82.9408 14.6571C82.5674 14.7371 82.2441 14.8705 81.9708 15.0571C81.7041 15.2438 81.4974 15.4871 81.3508 15.7871C81.2108 16.0871 81.1408 16.4405 81.1408 16.8471V23.0671H79.0008ZM86.9305 23.0671V8.20714H89.0705V17.6571L93.6405 12.7271H96.0405L92.3005 16.7171L96.2605 23.0671H94.0405L90.9305 18.0771L89.0705 20.0071V23.0671H86.9305ZM105.157 23.0671L101.917 12.7271H103.867L106.127 20.2571H106.267L108.477 12.7271H110.067L112.347 20.2371H112.487L114.667 12.7271H116.647L113.437 23.0671H111.477L109.237 15.8071L107.087 23.0671H105.157ZM118.602 23.0671V12.7271H120.662V23.0671H118.602ZM118.552 10.7271V8.61714H120.702V10.7271H118.552ZM127.58 23.1371C126.813 23.1371 126.22 23.0338 125.8 22.8271C125.38 22.6205 125.087 22.3238 124.92 21.9371C124.753 21.5438 124.67 21.0705 124.67 20.5171V14.2671H122.99V12.7271H124.74L125.26 9.68714H126.82V12.7171H129.14V14.2671H126.82L126.83 20.4371C126.83 20.7771 126.863 21.0271 126.93 21.1871C127.003 21.3405 127.123 21.4405 127.29 21.4871C127.463 21.5271 127.697 21.5471 127.99 21.5471H129.19V22.9371C129.063 22.9905 128.867 23.0371 128.6 23.0771C128.34 23.1171 128 23.1371 127.58 23.1371ZM131.54 23.0671V8.20714H133.65V14.2371C133.817 13.9638 134.04 13.7038 134.32 13.4571C134.607 13.2105 134.953 13.0105 135.36 12.8571C135.773 12.6971 136.253 12.6171 136.8 12.6171C137.473 12.6171 138.08 12.7438 138.62 12.9971C139.167 13.2438 139.6 13.6038 139.92 14.0771C140.247 14.5438 140.41 15.1005 140.41 15.7471V23.0671H138.27V16.1371C138.27 15.5571 138.07 15.1105 137.67 14.7971C137.27 14.4838 136.757 14.3271 136.13 14.3271C135.71 14.3271 135.31 14.4005 134.93 14.5471C134.557 14.6871 134.253 14.9005 134.02 15.1871C133.793 15.4671 133.68 15.8205 133.68 16.2471V23.0671H131.54ZM148.307 23.0671V8.60714H151.327L155.397 20.1071L159.527 8.60714H162.527V23.0671H160.337V11.5471L156.337 23.0671H154.467L150.487 11.6371V23.0671H148.307ZM170.102 23.2671C169.122 23.2671 168.259 23.0571 167.512 22.6371C166.765 22.2105 166.182 21.6038 165.762 20.8171C165.349 20.0305 165.142 19.0938 165.142 18.0071C165.142 16.9338 165.332 15.9871 165.712 15.1671C166.092 14.3405 166.642 13.6938 167.362 13.2271C168.082 12.7605 168.949 12.5271 169.962 12.5271C170.955 12.5271 171.795 12.7405 172.482 13.1671C173.169 13.5938 173.689 14.1938 174.042 14.9671C174.395 15.7338 174.572 16.6405 174.572 17.6871V18.3971H167.292C167.285 19.0171 167.385 19.5738 167.592 20.0671C167.799 20.5538 168.105 20.9405 168.512 21.2271C168.925 21.5071 169.439 21.6471 170.052 21.6471C170.672 21.6471 171.205 21.5071 171.652 21.2271C172.105 20.9471 172.402 20.5305 172.542 19.9771H174.522C174.402 20.6838 174.119 21.2838 173.672 21.7771C173.225 22.2705 172.689 22.6438 172.062 22.8971C171.435 23.1438 170.782 23.2671 170.102 23.2671ZM167.292 17.0071H172.532C172.532 16.4671 172.439 15.9771 172.252 15.5371C172.065 15.0905 171.779 14.7405 171.392 14.4871C171.012 14.2271 170.532 14.0971 169.952 14.0971C169.359 14.0971 168.865 14.2405 168.472 14.5271C168.079 14.8138 167.782 15.1805 167.582 15.6271C167.389 16.0738 167.292 16.5338 167.292 17.0071ZM177.409 19.1771L176.819 8.60714H179.369L178.809 19.1771H177.409ZM176.849 23.0671V20.5171H179.319V23.0671H176.849Z" fill="url(#paint0_linear_58_233)"/>
<defs>
<linearGradient id="paint0_linear_58_233" x1="48" y1="16.0671" x2="181" y2="16.0671" gradientUnits="userSpaceOnUse">
<stop stop-color="#E94B26"/>
<stop offset="1" stop-color="#EE6F49"/>
</linearGradient>
</defs>
</svg>
