<svg width="48" height="49" viewBox="0 0 48 49" fill="none" xmlns="http://www.w3.org/2000/svg">
<g clip-path="url(#clip0_241_705)">
<path d="M8.50012 1.47461H39.4999C44.2001 1.47461 48 5.27448 48 9.97474V39.7745C48 44.4747 44.2001 48.2746 39.4999 48.2746H8.50012C3.79987 48.2746 0 44.4747 0 39.7745V9.97474C0 5.27448 3.79987 1.47461 8.50012 1.47461Z" fill="#001E36"/>
<path d="M17.199 13.375C16.599 13.375 15.999 13.375 15.3791 13.3953C14.7588 13.4151 14.1787 13.4151 13.6387 13.4354C13.0987 13.4552 12.5988 13.4552 12.1188 13.4751C11.6587 13.495 11.3388 13.495 10.9987 13.495C10.8588 13.495 10.7988 13.5749 10.7988 13.7151V34.2951C10.7988 34.4751 10.8787 34.5554 11.0388 34.5554H14.919C15.0588 34.5351 15.159 34.4151 15.1387 34.2752V27.8552C15.5186 27.8552 15.7987 27.8552 15.999 27.8751C16.1988 27.895 16.5187 27.895 16.9987 27.895C18.639 27.895 20.139 27.715 21.4987 27.2151C22.7988 26.7351 23.919 25.8951 24.7188 24.775C25.5188 23.655 25.9188 22.235 25.9188 20.515C25.9188 19.615 25.7591 18.7551 25.4591 17.9151C25.1412 17.0593 24.6432 16.2818 23.9988 15.6351C23.2383 14.8962 22.3227 14.3359 21.3187 13.9949C20.1986 13.5749 18.8388 13.375 17.199 13.375ZM17.6452 17.3144C18.3577 17.3279 19.0515 17.4524 19.6987 17.7149C20.2788 17.935 20.7588 18.3351 21.099 18.8549C21.4179 19.3928 21.5775 20.0103 21.5591 20.6354C21.5591 21.5151 21.3588 22.1954 20.9388 22.6952C20.4986 23.1951 19.9387 23.5754 19.299 23.7554C18.5587 23.9954 17.7787 24.115 16.9987 24.115H15.9386C15.6986 24.115 15.4391 24.0951 15.159 24.0752V17.3552C15.2988 17.335 15.579 17.3151 15.9791 17.3354C16.359 17.3151 16.8187 17.3151 17.3388 17.3151C17.4413 17.3126 17.5435 17.3124 17.6452 17.3144ZM34.419 18.3355C32.9988 18.3355 31.8187 18.5552 30.879 19.0352C30.0191 19.4354 29.2788 20.0751 28.779 20.875C28.3391 21.6152 28.0987 22.435 28.0987 23.2952C28.0816 24.0028 28.2397 24.7036 28.5588 25.3352C28.9329 26.0079 29.4522 26.5886 30.0791 27.0351C30.9589 27.6369 31.9136 28.121 32.919 28.4751C33.8988 28.855 34.5588 29.155 34.8791 29.4149C35.199 29.6751 35.3591 29.935 35.3591 30.2151C35.3591 30.5751 35.139 30.9152 34.8191 31.0551C34.4591 31.2351 33.9191 31.3352 33.159 31.3352C32.3591 31.3352 31.5588 31.2351 30.7987 31.0352C29.9259 30.8403 29.0891 30.5097 28.3188 30.0554C28.2588 30.0152 28.1988 29.9954 28.1388 30.0355C28.0788 30.0752 28.059 30.1551 28.059 30.2151V33.6951C28.0391 33.8552 28.1388 33.9951 28.2791 34.075C28.9276 34.378 29.6137 34.5933 30.3191 34.7151C31.2191 34.8951 32.1187 34.975 33.0386 34.975C34.4786 34.975 35.679 34.7552 36.6588 34.3352C37.5588 33.9752 38.3388 33.3554 38.8987 32.5551C39.4231 31.7684 39.6952 30.8406 39.6787 29.8952C39.6984 29.1811 39.5405 28.4733 39.219 27.8354C38.8387 27.1551 38.2987 26.5953 37.6387 26.1753C36.6732 25.5689 35.6394 25.0788 34.5588 24.715C34.0763 24.5153 33.6025 24.2951 33.1387 24.055C32.8788 23.9151 32.6388 23.7351 32.4588 23.515C32.3388 23.3549 32.259 23.1752 32.259 22.9952C32.259 22.8152 32.319 22.6154 32.4187 22.4552C32.559 22.2554 32.7787 22.1151 33.0386 22.0551C33.4188 21.9554 33.8388 21.895 34.2386 21.9149C34.9987 21.9149 35.7386 22.015 36.4788 22.1751C37.1591 22.315 37.7988 22.5351 38.3988 22.8554C38.4787 22.8951 38.5788 22.8951 38.7588 22.8554C38.7901 22.8322 38.8154 22.802 38.8328 22.7672C38.8502 22.7324 38.8592 22.694 38.859 22.6551V19.3952C38.859 19.315 38.8387 19.2351 38.8188 19.1553C38.7787 19.0754 38.6988 18.9951 38.619 18.9752C38.0673 18.7498 37.4893 18.5952 36.8988 18.5151C36.0776 18.3956 35.2488 18.3358 34.419 18.3355Z" fill="#31A8FF"/>
</g>
<defs>
<clipPath id="clip0_241_705">
<rect width="48" height="48" fill="white" transform="translate(0 0.875)"/>
</clipPath>
</defs>
</svg>
