<svg width="64" height="65" viewBox="0 0 64 65" fill="none" xmlns="http://www.w3.org/2000/svg">
<rect x="0.5" y="1" width="63" height="63" rx="7.5" fill="url(#paint0_linear_241_645)"/>
<rect x="0.5" y="1" width="63" height="63" rx="7.5" stroke="url(#paint1_linear_241_645)"/>
<path fill-rule="evenodd" clip-rule="evenodd" d="M32.4544 18.1645C32.1645 18.0389 31.8355 18.0389 31.5456 18.1645L16.6885 24.6017C16.2705 24.7828 16 25.1949 16 25.6504C16 26.1059 16.2705 26.5179 16.6885 26.6991L18.7287 27.583V40.3626C17.736 40.803 17.0435 41.7973 17.0435 42.9534C17.0435 44.518 18.3118 45.7864 19.8764 45.7864C21.441 45.7864 22.7094 44.518 22.7094 42.9534C22.7094 41.7962 22.0156 40.801 21.0213 40.3612V28.5763L31.5456 33.1363C31.8355 33.2619 32.1645 33.2619 32.4544 33.1363L47.3115 26.6991C47.7294 26.5179 48 26.1059 48 25.6504C48 25.1949 47.7294 24.7828 47.3115 24.6017L32.4544 18.1645ZM22.7559 37.879L22.7444 32.4372L30.4087 35.7579C31.4233 36.1975 32.5746 36.1975 33.5892 35.7579L41.2549 32.4366L41.256 37.8763C41.256 38.1261 41.1742 38.369 41.0231 38.5679L40.1131 37.8766C41.0231 38.5679 41.0235 38.5674 41.0231 38.5679L41.0215 38.57L41.0197 38.5725L41.0153 38.5782L41.0037 38.5931L40.9687 38.6365C40.9403 38.6712 40.9017 38.7172 40.8523 38.773C40.7538 38.8844 40.6128 39.035 40.4279 39.2112C40.0581 39.5635 39.5102 40.0206 38.7719 40.4737C37.288 41.3843 35.0548 42.2657 31.9994 42.2657C28.9438 42.2657 26.7136 41.3843 25.2323 40.473C24.4954 40.0197 23.9491 39.5624 23.5803 39.2097C23.3959 39.0333 23.2553 38.8826 23.1572 38.771C23.108 38.7152 23.0694 38.6691 23.0411 38.6343L23.0064 38.5909L22.9948 38.5759L22.9904 38.5701L22.9885 38.5677L22.9877 38.5666C22.9873 38.5661 22.9869 38.5656 23.8986 37.8767L22.9877 38.5666C22.8383 38.3689 22.7564 38.1269 22.7559 37.879Z" fill="url(#paint2_linear_241_645)"/>
<defs>
<linearGradient id="paint0_linear_241_645" x1="32" y1="0.5" x2="32" y2="64.5" gradientUnits="userSpaceOnUse">
<stop stop-color="white"/>
<stop offset="1" stop-color="#FCE5D8"/>
</linearGradient>
<linearGradient id="paint1_linear_241_645" x1="37.5" y1="0" x2="37.5" y2="64" gradientUnits="userSpaceOnUse">
<stop stop-color="#FCFCFD"/>
<stop offset="1" stop-color="#F3A07E"/>
</linearGradient>
<linearGradient id="paint2_linear_241_645" x1="32" y1="18.0703" x2="32" y2="45.7864" gradientUnits="userSpaceOnUse">
<stop stop-color="#901F1C"/>
<stop offset="1" stop-color="#E94B26"/>
</linearGradient>
</defs>
</svg>
