<svg width="34" height="43" viewBox="0 0 34 43" fill="none" xmlns="http://www.w3.org/2000/svg">
<path fill-rule="evenodd" clip-rule="evenodd" d="M8.81663 0.5C8.21435 0.5 7.67048 0.860228 7.43549 1.41478L0.685488 17.3448L0.679158 17.36C0.492438 17.8145 0.420198 18.3079 0.468828 18.7968C0.517428 19.2858 0.685398 19.7553 0.957948 20.1641C1.2305 20.5729 1.59932 20.9086 2.03195 21.1415C2.46458 21.3745 2.94782 21.4975 3.43916 21.5L9.82805 21.5L4.37435 40.5878C4.18862 41.2379 4.46066 41.9318 5.03864 42.2825C5.61659 42.6332 6.35771 42.5537 6.84839 42.0887L32.6185 17.6688L32.6275 17.6602C33.0556 17.2476 33.3514 16.7172 33.4777 16.1362C33.6037 15.5551 33.5542 14.9498 33.3358 14.3969C33.1171 13.844 32.7391 13.3685 32.2498 13.0308C31.7605 12.6931 31.1818 12.5084 30.5875 12.5002L21.7437 12.5L26.6584 2.67082C26.8909 2.20584 26.866 1.65363 26.5927 1.2114C26.3194 0.769179 25.8365 0.5 25.3166 0.5H8.81663Z" fill="url(#paint0_linear_241_666)"/>
<defs>
<linearGradient id="paint0_linear_241_666" x1="17" y1="0.5" x2="17" y2="42.5" gradientUnits="userSpaceOnUse">
<stop stop-color="#F3A07E"/>
<stop offset="1" stop-color="#E94B26"/>
</linearGradient>
</defs>
</svg>
