<svg width="48" height="47" viewBox="0 0 48 47" fill="none" xmlns="http://www.w3.org/2000/svg">
<g clip-path="url(#clip0_241_694)">
<path d="M8.49994 0H39.5001C44.1999 0 48 3.80006 48 8.49994V38.3001C48 42.9999 44.1999 46.8 39.5001 46.8H8.49994C3.80006 46.8 0 42.9999 0 38.3001V8.49994C0 3.80006 3.80006 0 8.49994 0Z" fill="#00005B"/>
<path d="M11.4001 32.8203V12.2403C11.4001 12.1003 11.4601 12.0204 11.6002 12.0204L11.8905 12.0198L12.1151 12.018L12.2735 12.015L12.4423 12.0106L12.6236 12.0043L12.7201 12.0003C12.9001 11.9928 13.083 11.9881 13.2695 11.9842L13.8423 11.9722C13.9075 11.9707 13.9731 11.969 14.0394 11.967L14.24 11.9604C14.42 11.9539 14.6045 11.9489 14.7935 11.9454L15.3735 11.9351L15.7749 11.9263L15.9802 11.9203C16.3935 11.9071 16.7979 11.9026 17.1993 11.9011L17.8001 11.9004C19.4401 11.9004 20.8001 12.1003 21.9202 12.5203C22.9242 12.8613 23.8396 13.4215 24.6001 14.1603C25.2445 14.807 25.7424 15.5846 26.0602 16.4403C26.3602 17.2803 26.5201 18.1404 26.5201 19.0404C26.5201 20.7604 26.1201 22.1804 25.3201 23.3004C24.5201 24.4203 23.4001 25.2603 22.1002 25.7403C20.7855 26.2237 19.34 26.4078 17.7637 26.4196H17.192L16.9695 26.4174L16.8268 26.414L16.7428 26.4105L16.6674 26.406L16.6001 26.4003C16.5569 26.3961 16.5136 26.3929 16.4703 26.3906L16.3728 26.3863L16.266 26.3835L16.0876 26.381L15.7402 26.3803V32.8003C15.7601 32.9403 15.6601 33.0603 15.5201 33.0804H11.6401C11.4802 33.0804 11.4001 33.0003 11.4001 32.8203ZM15.7601 15.8803V22.6003L15.9952 22.6171C16.1765 22.631 16.3582 22.6388 16.5401 22.6404H17.6002C18.3802 22.6404 19.1602 22.5204 19.9001 22.2804C20.5402 22.1004 21.1001 21.7203 21.5401 21.2203C21.9601 20.7204 22.1602 20.0403 22.1602 19.1604C22.179 18.5354 22.0194 17.9179 21.7001 17.3803C21.3744 16.8821 20.9199 16.494 20.3722 16.2688L20.3002 16.2403C19.5601 15.9403 18.7601 15.8203 17.9401 15.8403L17.4778 15.8409L17.2605 15.8422L17.0529 15.845L16.8558 15.8495C16.7597 15.852 16.6678 15.8556 16.5802 15.8604C16.5372 15.8582 16.4942 15.8565 16.4512 15.8551L16.3314 15.8525L16.2751 15.8521L16.169 15.8527L16.0726 15.8553L16.028 15.8572L15.9461 15.8619L15.8741 15.8675L15.8416 15.8705L15.7848 15.8771L15.7601 15.8803ZM29.3201 17.0403H32.8201C33.009 17.0403 33.1623 17.1652 33.2293 17.3308L33.2401 17.3604C33.3001 17.5203 33.3401 17.6803 33.3601 17.8603C33.4001 18.0603 33.4402 18.2803 33.4601 18.4803L33.477 18.6738C33.4901 18.839 33.5002 19.0147 33.5002 19.2003C34.073 18.5316 34.7599 17.9699 35.529 17.5411L35.6401 17.4804C36.5602 16.9603 37.6201 16.7004 38.6801 16.7004C38.8201 16.6803 38.9401 16.7803 38.9602 16.9203V20.9004C38.9602 21.0603 38.8601 21.1203 38.6401 21.1203C37.9681 21.1016 37.2789 21.1528 36.6208 21.2896L36.4801 21.3204C35.9001 21.4404 35.3401 21.6204 34.8001 21.8604C34.4201 22.0404 34.0601 22.2804 33.7801 22.6003V32.8003C33.7801 33.0003 33.7001 33.0804 33.5201 33.0804H29.5801C29.4202 33.1003 29.2801 33.0003 29.2601 32.8404V21.6804C29.2601 21.2004 29.2601 20.7003 29.2402 20.1804L29.2282 19.7904L29.2121 19.0104C29.2091 18.8804 29.2051 18.7504 29.2001 18.6204C29.2001 18.1603 29.1601 17.7204 29.1202 17.2603C29.1001 17.1603 29.1601 17.0604 29.2601 17.0403C29.2601 17.0233 29.2895 17.0208 29.3105 17.0328L29.3201 17.0403Z" fill="#9999FF"/>
</g>
<defs>
<clipPath id="clip0_241_694">
<rect width="48" height="46.875" fill="white"/>
</clipPath>
</defs>
</svg>
