<svg width="48" height="49" viewBox="0 0 48 49" fill="none" xmlns="http://www.w3.org/2000/svg">
<g clip-path="url(#clip0_241_699)">
<path d="M36.75 0.875H11.25C5.0368 0.875 0 5.9118 0 12.125V37.625C0 43.8382 5.0368 48.875 11.25 48.875H36.75C42.9632 48.875 48 43.8382 48 37.625V12.125C48 5.9118 42.9632 0.875 36.75 0.875Z" fill="#00005B"/>
<path d="M19.7169 30.1475H12.2769L10.7568 34.8674C10.7169 35.0474 10.557 35.1674 10.377 35.1476H6.61685C6.39691 35.1476 6.33691 35.0276 6.39691 34.7876L12.837 16.3274C12.897 16.1276 12.957 15.9476 13.0368 15.7076C13.1169 15.2876 13.1568 14.8475 13.1568 14.4074C13.137 14.3075 13.2169 14.2076 13.3168 14.1875H18.4969C18.6369 14.1875 18.7369 14.2475 18.7569 14.3474L26.0569 34.7474C26.1169 34.9676 26.0569 35.0675 25.857 35.0675H21.6769C21.537 35.0876 21.3969 34.9874 21.357 34.8476L19.7169 30.0476V30.1475ZM13.437 26.1674H18.5169C18.3969 25.7474 18.2368 25.2476 18.0568 24.7274C17.8768 24.1874 17.6968 23.6075 17.5168 23.0075C17.3169 22.3874 17.1369 21.7874 16.9369 21.1676C16.7368 20.5477 16.557 19.9676 16.3968 19.3874C16.2369 18.8276 16.0968 18.3074 15.9568 17.8274H15.9169C15.7368 18.6875 15.5169 19.5476 15.2368 20.4074C14.9368 21.3674 14.6368 22.3676 14.3169 23.3675C14.0569 24.3875 13.7368 25.3274 13.437 26.1674ZM37.8369 28.3475H31.497C31.5769 28.9676 31.7769 29.5874 32.1168 30.1274C32.4769 30.6674 32.9769 31.0874 33.5769 31.3274C34.377 31.6676 35.2569 31.8476 36.1369 31.8275C36.837 31.8074 37.5369 31.7474 38.217 31.6076C38.8269 31.5278 39.4247 31.3732 39.9969 31.1474C40.0969 31.0676 40.1569 31.1075 40.1569 31.3076V34.3676C40.1569 34.4474 40.137 34.5275 40.1169 34.6076C40.077 34.6676 40.0369 34.7075 39.9769 34.7474C39.3372 35.0284 38.6656 35.2299 37.977 35.3474C37.0414 35.5274 36.0894 35.6079 35.1369 35.5874C33.6169 35.5874 32.337 35.3474 31.2969 34.8875C30.3169 34.4675 29.457 33.8075 28.7769 32.9876C28.1437 32.217 27.6741 31.3255 27.3969 30.3674C27.117 29.4275 26.9769 28.4474 26.9769 27.4475C26.9769 26.3675 27.1369 25.3076 27.477 24.2675C27.7958 23.2661 28.3051 22.3357 28.977 21.5276C29.637 20.7275 30.4569 20.0876 31.3969 19.6274C32.337 19.1675 33.4569 19.0076 34.737 19.0076C35.7969 18.9875 36.8569 19.1876 37.8369 19.6274C38.6569 19.9874 39.3769 20.5274 39.9369 21.2276C40.4569 21.9074 40.8769 22.6676 41.1369 23.5076C41.397 24.3074 41.517 25.1276 41.517 25.9475C41.517 26.4275 41.4969 26.8475 41.4769 27.2276C41.4369 27.6074 41.4169 27.8876 41.397 28.0676C41.3769 28.2074 41.2569 28.3274 41.1169 28.3274C40.9968 28.3274 40.7769 28.3475 40.4569 28.3676C40.137 28.4075 39.7569 28.4276 39.297 28.4276C38.8369 28.4276 38.3569 28.3475 37.8369 28.3475ZM31.497 25.4276H35.7169C36.237 25.4276 36.6169 25.4276 36.8569 25.4075C37.017 25.3874 37.1769 25.3475 37.317 25.2476V25.0475C37.3176 24.7959 37.2771 24.5459 37.197 24.3074C36.837 23.1875 35.7769 22.4276 34.5969 22.4675C34.0541 22.4371 33.5141 22.5644 33.0421 22.8342C32.5701 23.1039 32.1862 23.5045 31.9369 23.9876C31.6969 24.4475 31.557 24.9275 31.497 25.4276Z" fill="#9999FF"/>
</g>
<defs>
<clipPath id="clip0_241_699">
<rect width="48" height="48" fill="white" transform="translate(0 0.875)"/>
</clipPath>
</defs>
</svg>
