<svg width="40" height="41" viewBox="0 0 40 41" fill="none" xmlns="http://www.w3.org/2000/svg">
<path fill-rule="evenodd" clip-rule="evenodd" d="M6.18752 0.25C4.0379 0.25 2.13032 1.78517 1.82056 3.99319C1.34061 7.41415 0.78418 13.0949 0.78418 20.5C0.78418 27.9051 1.34061 33.5857 1.82056 37.0069C2.13032 39.2149 4.0379 40.75 6.18752 40.75H33.809C35.9585 40.75 37.8662 39.2149 38.1758 37.0069C38.6558 33.5857 39.2123 27.9051 39.2123 20.5C39.2123 13.0949 38.6558 7.41415 38.1758 3.99319C37.8662 1.78517 35.9585 0.25 33.809 0.25H6.18752ZM9.07145 15.0349C9.22694 11.9787 9.5831 9.0115 9.91496 7.03525C10.129 5.76097 11.2397 4.9225 12.5318 4.9225H27.4642C28.7563 4.9225 29.867 5.76097 30.0812 7.03525C30.413 9.0115 30.7691 11.9787 30.9245 15.0349C31.0088 16.6896 29.6618 18.0336 28.0049 18.0336H11.9911C10.3343 18.0336 8.98727 16.6896 9.07145 15.0349ZM30.0812 33.9649C30.4133 31.9885 30.7694 29.0213 30.9248 25.9651C31.0091 24.3104 29.6621 22.9664 28.0052 22.9664H11.9914C10.3345 22.9664 8.98751 24.3104 9.07169 25.9651C9.22721 29.0213 9.58334 31.9885 9.91523 33.9649C10.1292 35.239 11.24 36.0775 12.5321 36.0775H27.4645C28.7566 36.0775 29.8673 35.239 30.0812 33.9649Z" fill="url(#paint0_linear_241_689)"/>
<defs>
<linearGradient id="paint0_linear_241_689" x1="19.9983" y1="0.25" x2="19.9983" y2="40.75" gradientUnits="userSpaceOnUse">
<stop stop-color="#F3A07E"/>
<stop offset="1" stop-color="#E94B26"/>
</linearGradient>
</defs>
</svg>
