<svg width="64" height="65" viewBox="0 0 64 65" fill="none" xmlns="http://www.w3.org/2000/svg">
<rect x="0.5" y="1" width="63" height="63" rx="7.5" fill="url(#paint0_linear_241_616)"/>
<rect x="0.5" y="1" width="63" height="63" rx="7.5" stroke="url(#paint1_linear_241_616)"/>
<path fill-rule="evenodd" clip-rule="evenodd" d="M20.5964 43.4955C18.7555 43.4955 17.2631 42.0032 17.2631 40.1621V24.8372C17.2631 22.9963 18.7554 21.5039 20.5964 21.5039H36.2152C38.0562 21.5039 39.5486 22.9963 39.5486 24.8372V28.2373L43.7127 25.7544C45.0459 24.9595 46.737 25.9201 46.737 27.4722V37.5315C46.737 39.0836 45.0459 40.0443 43.7127 39.2493L39.5486 36.7664V40.1621C39.5486 42.0032 38.0562 43.4955 36.2152 43.4955H20.5964ZM24.6345 33.3165C24.416 32.8093 23.8277 32.5753 23.3205 32.7939C22.8133 33.0124 22.5793 33.6008 22.7978 34.108C23.7326 36.2772 25.8908 37.7988 28.4068 37.7988C30.9227 37.7988 33.081 36.2772 34.0156 34.108C34.2343 33.6008 34.0003 33.0124 33.4931 32.7939C32.9859 32.5753 32.3975 32.8093 32.179 33.3165C31.549 34.7785 30.0959 35.7988 28.4068 35.7988C26.7176 35.7988 25.2645 34.7785 24.6345 33.3165ZM23.9922 30.1757C24.8365 30.1757 25.5209 29.4914 25.5209 28.6471C25.5209 27.8029 24.8365 27.1185 23.9922 27.1185C23.148 27.1185 22.4636 27.8029 22.4636 28.6471C22.4636 29.4914 23.148 30.1757 23.9922 30.1757ZM34.349 28.6471C34.349 29.4914 33.6646 30.1757 32.8203 30.1757C31.976 30.1757 31.2918 29.4914 31.2918 28.6471C31.2918 27.8029 31.976 27.1185 32.8203 27.1185C33.6646 27.1185 34.349 27.8029 34.349 28.6471Z" fill="url(#paint2_linear_241_616)"/>
<defs>
<linearGradient id="paint0_linear_241_616" x1="32" y1="0.5" x2="32" y2="64.5" gradientUnits="userSpaceOnUse">
<stop stop-color="white"/>
<stop offset="1" stop-color="#FCE5D8"/>
</linearGradient>
<linearGradient id="paint1_linear_241_616" x1="37.5" y1="0" x2="37.5" y2="64" gradientUnits="userSpaceOnUse">
<stop stop-color="#FCFCFD"/>
<stop offset="1" stop-color="#F3A07E"/>
</linearGradient>
<linearGradient id="paint2_linear_241_616" x1="32" y1="21.5039" x2="32" y2="43.4955" gradientUnits="userSpaceOnUse">
<stop stop-color="#901F1C"/>
<stop offset="1" stop-color="#E94B26"/>
</linearGradient>
</defs>
</svg>
