<svg width="24" height="24" viewBox="0 0 24 24" fill="none" xmlns="http://www.w3.org/2000/svg">
<path d="M7.71 17.71L16 9.42005L16 15C16 15.2653 16.1054 15.5196 16.2929 15.7072C16.4804 15.8947 16.7348 16 17 16C17.2652 16 17.5196 15.8947 17.7071 15.7072C17.8946 15.5196 18 15.2653 18 15L18 7.05005C18 6.78483 17.8946 6.53048 17.7071 6.34294C17.5196 6.15541 17.2652 6.05005 17 6.05005L9 6.05005C8.73478 6.05005 8.48043 6.1554 8.29289 6.34294C8.10536 6.53048 8 6.78483 8 7.05005L8 7.00005C8 7.26526 8.10536 7.51962 8.29289 7.70715C8.48043 7.89469 8.73478 8.00005 9 8.00005L14.55 8.00005L6.29 16.26C6.19627 16.353 6.12188 16.4636 6.07111 16.5855C6.02034 16.7073 5.9942 16.838 5.9942 16.97C5.9942 17.1021 6.02034 17.2328 6.07111 17.3546C6.12188 17.4765 6.19627 17.5871 6.29 17.68C6.38097 17.7758 6.48999 17.8525 6.61078 17.9059C6.73157 17.9592 6.86173 17.9882 6.99375 17.9909C7.12577 17.9937 7.25703 17.9703 7.37997 17.9221C7.5029 17.8739 7.61507 17.8018 7.71 17.71Z" fill="#454545"/>
</svg>
