<svg width="16" height="17" viewBox="0 0 16 17" fill="none" xmlns="http://www.w3.org/2000/svg">
<path d="M12.6667 2.13452C13.0203 2.13452 13.3594 2.275 13.6095 2.52505C13.8595 2.77509 14 3.11423 14 3.46785V12.8012C14 13.1548 13.8595 13.4939 13.6095 13.744C13.3594 13.994 13.0203 14.1345 12.6667 14.1345H3.33333C2.97971 14.1345 2.64057 13.994 2.39052 13.744C2.14048 13.4939 2 13.1548 2 12.8012V3.46785C2 3.11423 2.14048 2.77509 2.39052 2.52505C2.64057 2.275 2.97971 2.13452 3.33333 2.13452H12.6667ZM12.3333 12.4679V8.93452C12.3333 8.35812 12.1044 7.80532 11.6968 7.39774C11.2892 6.99016 10.7364 6.76119 10.16 6.76119C9.59333 6.76119 8.93333 7.10785 8.61333 7.62785V6.88786H6.75333V12.4679H8.61333V9.18119C8.61333 8.66785 9.02667 8.24786 9.54 8.24786C9.78754 8.24786 10.0249 8.34619 10.2 8.52122C10.375 8.69626 10.4733 8.93365 10.4733 9.18119V12.4679H12.3333ZM4.58667 5.84119C4.88371 5.84119 5.16859 5.72319 5.37863 5.51315C5.58867 5.30311 5.70667 5.01823 5.70667 4.72119C5.70667 4.10119 5.20667 3.59452 4.58667 3.59452C4.28786 3.59452 4.00128 3.71322 3.78999 3.92451C3.5787 4.13581 3.46 4.42238 3.46 4.72119C3.46 5.34119 3.96667 5.84119 4.58667 5.84119ZM5.51333 12.4679V6.88786H3.66667V12.4679H5.51333Z" fill="#B52419"/>
</svg>
