<svg width="293" height="32" viewBox="0 0 293 32" fill="none" xmlns="http://www.w3.org/2000/svg">
<path d="M17.28 0H14.72V12.9098L5.59134 3.78118L3.78114 5.59137L12.9098 14.72H0V17.28H12.9098L3.78118 26.4086L5.59137 28.2188L14.72 19.0902V32H17.28V19.0902L26.4086 28.2188L28.2188 26.4086L19.0902 17.28H32V14.72H19.0902L28.2188 5.5914L26.4086 3.78121L17.28 12.9098V0Z" fill="#E94B26"/>
<path d="M60.525 23.75H60.65V24H57.125V23.75H57.25C57.3667 23.75 57.475 23.7 57.575 23.6C57.675 23.5 57.7583 23.3833 57.825 23.25C57.9083 23.1167 57.9667 22.975 58 22.825C58.0333 22.6583 58.05 22.5083 58.05 22.375V9.05C58.05 8.93333 58.0333 8.8 58 8.65C57.9667 8.5 57.9083 8.35833 57.825 8.225C57.7583 8.09167 57.675 7.98333 57.575 7.9C57.475 7.8 57.3667 7.75 57.25 7.75H57.125V7.5H61.475C63.1417 7.5 64.425 7.825 65.325 8.475C66.2417 9.125 66.7 10.0833 66.7 11.35C66.7 11.9833 66.5917 12.5417 66.375 13.025C66.175 13.4917 65.9 13.9 65.55 14.25C65.2 14.5833 64.7833 14.8583 64.3 15.075C63.8333 15.275 63.3333 15.425 62.8 15.525L64.6 18.275C65.0333 18.9417 65.475 19.6 65.925 20.25C66.375 20.8833 66.8167 21.5417 67.25 22.225C67.3667 22.3917 67.4917 22.5667 67.625 22.75C67.775 22.9333 67.925 23.1 68.075 23.25C68.2417 23.4 68.4083 23.525 68.575 23.625C68.7583 23.7083 68.9417 23.75 69.125 23.75V24H68.05C67.3833 24 66.8333 23.8417 66.4 23.525C65.9833 23.1917 65.6333 22.8083 65.35 22.375C64.6 21.275 63.85 20.1583 63.1 19.025C62.3667 17.8917 61.6333 16.775 60.9 15.675C60.7167 15.6583 60.5167 15.6417 60.3 15.625C60.1 15.5917 59.9083 15.5583 59.725 15.525V22.375C59.725 22.5083 59.7417 22.6583 59.775 22.825C59.8083 22.975 59.8583 23.1167 59.925 23.25C60.0083 23.3833 60.0917 23.5 60.175 23.6C60.275 23.7 60.3917 23.75 60.525 23.75ZM59.725 8.35V14.7H59.85C59.9833 14.7167 60.1917 14.7333 60.475 14.75C60.775 14.75 61.1417 14.75 61.575 14.75C61.925 14.75 62.2917 14.7 62.675 14.6C63.075 14.4833 63.4417 14.3 63.775 14.05C64.125 13.7833 64.4083 13.4417 64.625 13.025C64.8583 12.6083 64.975 12.0833 64.975 11.45C64.975 10.8167 64.85 10.3 64.6 9.9C64.3667 9.5 64.0333 9.18333 63.6 8.95C63.1833 8.71667 62.675 8.55833 62.075 8.475C61.475 8.39167 60.8167 8.35 60.1 8.35H59.725ZM70.976 24V23.75C71.1093 23.75 71.226 23.7 71.326 23.6C71.426 23.5 71.5093 23.3833 71.576 23.25C71.6426 23.1167 71.6926 22.975 71.726 22.825C71.7593 22.6583 71.776 22.5083 71.776 22.375V15.45C71.776 15.1667 71.7343 14.9 71.651 14.65C71.5676 14.3833 71.326 14.2417 70.926 14.225V14L73.426 13.2V22.375C73.426 22.5083 73.4426 22.6583 73.476 22.825C73.5093 22.975 73.5593 23.1167 73.626 23.25C73.6926 23.3833 73.776 23.5 73.876 23.6C73.976 23.7 74.0926 23.75 74.226 23.75V24H70.976ZM71.101 10.8C71.101 10.4667 71.2093 10.1833 71.426 9.95C71.6593 9.71667 71.9426 9.6 72.276 9.6C72.6093 9.6 72.8926 9.71667 73.126 9.95C73.3593 10.1833 73.476 10.4667 73.476 10.8C73.476 11.1333 73.3593 11.4083 73.126 11.625C72.8926 11.8417 72.6093 11.95 72.276 11.95C71.9426 11.95 71.6593 11.8417 71.426 11.625C71.2093 11.4083 71.101 11.1333 71.101 10.8ZM87.0004 13.5V13.75C86.8837 13.75 86.7671 13.7917 86.6504 13.875C86.5337 13.9583 86.4171 14.0667 86.3004 14.2C86.2004 14.3333 86.1004 14.4833 86.0004 14.65C85.9171 14.8 85.8421 14.9417 85.7754 15.075L81.4754 24.425L77.2004 14.975C77.0837 14.7083 76.9337 14.4417 76.7504 14.175C76.5671 13.8917 76.3337 13.75 76.0504 13.75V13.5H79.4754V13.75C79.3754 13.75 79.2421 13.8 79.0754 13.9C78.9254 14 78.8504 14.1417 78.8504 14.325C78.8504 14.4083 78.9171 14.6 79.0504 14.9L81.9254 21.375L85.0254 14.625C85.0921 14.4583 85.1254 14.3333 85.1254 14.25C85.1254 14.1 85.0504 13.9833 84.9004 13.9C84.7671 13.8 84.6504 13.75 84.5504 13.75V13.5H87.0004ZM95.1459 24V22.725L95.0209 22.85C94.6042 23.2667 94.1209 23.5917 93.5709 23.825C93.0376 24.0583 92.3876 24.175 91.6209 24.175C91.0376 24.175 90.5376 24.1083 90.1209 23.975C89.7042 23.8417 89.3626 23.6583 89.0959 23.425C88.8292 23.175 88.6292 22.8917 88.4959 22.575C88.3792 22.2583 88.3209 21.925 88.3209 21.575C88.3209 21.0083 88.4709 20.5083 88.7709 20.075C89.0876 19.6417 89.5376 19.2583 90.1209 18.925C90.7042 18.5917 91.4126 18.2917 92.2459 18.025C93.0959 17.7417 94.0626 17.4667 95.1459 17.2C95.1126 16.55 94.9792 16.025 94.7459 15.625C94.5126 15.225 94.2376 14.9167 93.9209 14.7C93.6042 14.4667 93.2709 14.3167 92.9209 14.25C92.5709 14.1667 92.2709 14.125 92.0209 14.125C91.5876 14.125 91.2042 14.1917 90.8709 14.325C90.5542 14.4583 90.2709 14.6333 90.0209 14.85C89.7876 15.05 89.5876 15.275 89.4209 15.525C89.2542 15.7583 89.1209 15.9833 89.0209 16.2H88.7959V14.375C88.9292 14.3583 89.0542 14.3167 89.1709 14.25C89.2876 14.1833 89.4292 14.1167 89.5959 14.05C89.8459 13.95 90.1876 13.8083 90.6209 13.625C91.0542 13.425 91.6626 13.325 92.4459 13.325C93.3626 13.325 94.1042 13.4417 94.6709 13.675C95.2376 13.9083 95.6709 14.2167 95.9709 14.6C96.2876 14.9833 96.4959 15.425 96.5959 15.925C96.6959 16.4083 96.7459 16.9083 96.7459 17.425V22.375C96.7459 22.7083 96.8209 23.025 96.9709 23.325C97.1209 23.6083 97.3209 23.75 97.5709 23.75V24H95.1459ZM95.1459 21.625V18.05L94.8959 18.1C94.4959 18.2 94.0042 18.3333 93.4209 18.5C92.8542 18.6667 92.3126 18.8833 91.7959 19.15C91.2792 19.4167 90.8376 19.7333 90.4709 20.1C90.1042 20.4667 89.9209 20.8917 89.9209 21.375C89.9209 21.9083 90.1376 22.35 90.5709 22.7C91.0042 23.05 91.5709 23.225 92.2709 23.225C92.8209 23.225 93.3042 23.1083 93.7209 22.875C94.1376 22.625 94.5209 22.3083 94.8709 21.925L95.1459 21.625ZM110.022 22.375C110.022 22.5083 110.038 22.6583 110.072 22.825C110.105 22.975 110.155 23.1167 110.222 23.25C110.305 23.3833 110.388 23.5 110.472 23.6C110.572 23.7 110.688 23.75 110.822 23.75V24H107.597V23.75C107.713 23.75 107.822 23.7 107.922 23.6C108.022 23.5 108.105 23.3833 108.172 23.25C108.255 23.1167 108.313 22.975 108.347 22.825C108.38 22.6583 108.397 22.5083 108.397 22.375V17.725C108.397 17.125 108.313 16.6 108.147 16.15C107.98 15.7 107.755 15.325 107.472 15.025C107.188 14.725 106.863 14.5083 106.497 14.375C106.147 14.225 105.788 14.15 105.422 14.15C105.055 14.15 104.688 14.225 104.322 14.375C103.972 14.525 103.655 14.725 103.372 14.975C103.105 15.2083 102.88 15.4917 102.697 15.825C102.53 16.1417 102.447 16.475 102.447 16.825V22.375C102.447 22.5083 102.463 22.6583 102.497 22.825C102.53 22.975 102.58 23.1167 102.647 23.25C102.73 23.3833 102.813 23.5 102.897 23.6C102.997 23.7 103.113 23.75 103.247 23.75V24H99.9967V23.75C100.113 23.75 100.222 23.7 100.322 23.6C100.422 23.5 100.505 23.3833 100.572 23.25C100.655 23.1167 100.713 22.975 100.747 22.825C100.78 22.6583 100.797 22.5083 100.797 22.375V15.475C100.797 15.1917 100.755 14.925 100.672 14.675C100.588 14.4083 100.347 14.2667 99.9467 14.25V14.025L102.447 13.225V14.6C102.563 14.4667 102.713 14.325 102.897 14.175C103.08 14.0083 103.297 13.8583 103.547 13.725C103.813 13.575 104.113 13.4583 104.447 13.375C104.797 13.275 105.205 13.225 105.672 13.225C106.455 13.225 107.122 13.3583 107.672 13.625C108.222 13.8917 108.672 14.2417 109.022 14.675C109.372 15.0917 109.622 15.5583 109.772 16.075C109.938 16.575 110.022 17.0667 110.022 17.55V22.375ZM121.227 24V22.9C120.944 23.2167 120.561 23.5083 120.077 23.775C119.611 24.0417 119.019 24.175 118.302 24.175C117.419 24.175 116.644 24.025 115.977 23.725C115.327 23.4083 114.786 23 114.352 22.5C113.919 22 113.594 21.4333 113.377 20.8C113.177 20.15 113.077 19.4833 113.077 18.8C113.077 18.1333 113.186 17.475 113.402 16.825C113.619 16.1583 113.944 15.5667 114.377 15.05C114.811 14.5333 115.352 14.1167 116.002 13.8C116.652 13.4833 117.402 13.325 118.252 13.325C118.819 13.325 119.377 13.4333 119.927 13.65C120.477 13.85 120.911 14.1167 121.227 14.45V9.575C121.227 9.29167 121.186 9.025 121.102 8.775C121.019 8.525 120.777 8.39167 120.377 8.375V8.125L122.877 7.35V22.375C122.877 22.5083 122.894 22.6583 122.927 22.825C122.961 22.975 123.011 23.1167 123.077 23.25C123.144 23.3833 123.227 23.5 123.327 23.6C123.427 23.7 123.544 23.75 123.677 23.75V24H121.227ZM118.477 23.35C118.827 23.35 119.169 23.2833 119.502 23.15C119.836 23 120.127 22.8083 120.377 22.575C120.627 22.325 120.827 22.0417 120.977 21.725C121.144 21.3917 121.227 21.0333 121.227 20.65V17.225C121.227 16.7583 121.127 16.3417 120.927 15.975C120.727 15.5917 120.477 15.2667 120.177 15C119.877 14.7333 119.544 14.5333 119.177 14.4C118.827 14.25 118.486 14.175 118.152 14.175C117.602 14.175 117.111 14.3083 116.677 14.575C116.244 14.825 115.877 15.1583 115.577 15.575C115.277 15.975 115.052 16.4333 114.902 16.95C114.752 17.45 114.677 17.95 114.677 18.45C114.677 19.0333 114.761 19.6167 114.927 20.2C115.094 20.7667 115.336 21.2833 115.652 21.75C115.986 22.2 116.386 22.575 116.852 22.875C117.319 23.175 117.861 23.3333 118.477 23.35ZM126.445 24V23.75C126.578 23.75 126.695 23.7 126.795 23.6C126.895 23.5 126.978 23.3833 127.045 23.25C127.111 23.1167 127.161 22.975 127.195 22.825C127.228 22.6583 127.245 22.5083 127.245 22.375V15.45C127.245 15.1667 127.203 14.9 127.12 14.65C127.036 14.3833 126.795 14.2417 126.395 14.225V14L128.895 13.2V22.375C128.895 22.5083 128.911 22.6583 128.945 22.825C128.978 22.975 129.028 23.1167 129.095 23.25C129.161 23.3833 129.245 23.5 129.345 23.6C129.445 23.7 129.561 23.75 129.695 23.75V24H126.445ZM126.57 10.8C126.57 10.4667 126.678 10.1833 126.895 9.95C127.128 9.71667 127.411 9.6 127.745 9.6C128.078 9.6 128.361 9.71667 128.595 9.95C128.828 10.1833 128.945 10.4667 128.945 10.8C128.945 11.1333 128.828 11.4083 128.595 11.625C128.361 11.8417 128.078 11.95 127.745 11.95C127.411 11.95 127.128 11.8417 126.895 11.625C126.678 11.4083 126.57 11.1333 126.57 10.8ZM138.838 23.75H138.963C139.08 23.75 139.188 23.7 139.288 23.6C139.388 23.5 139.472 23.3833 139.538 23.25C139.622 23.1167 139.68 22.975 139.713 22.825C139.747 22.6583 139.763 22.5083 139.763 22.375V9.05C139.763 8.93333 139.747 8.8 139.713 8.65C139.68 8.5 139.63 8.35833 139.563 8.225C139.497 8.09167 139.413 7.98333 139.313 7.9C139.213 7.8 139.097 7.75 138.963 7.75H138.838V7.5H143.663C144.98 7.5 146.163 7.73333 147.213 8.2C148.263 8.65 149.147 9.26667 149.863 10.05C150.597 10.8167 151.155 11.7 151.538 12.7C151.922 13.7 152.113 14.7417 152.113 15.825C152.113 16.8417 151.93 17.8417 151.563 18.825C151.197 19.7917 150.647 20.6583 149.913 21.425C149.18 22.1917 148.263 22.8167 147.163 23.3C146.063 23.7667 144.788 24 143.338 24H138.838V23.75ZM150.413 16.2C150.413 15.1333 150.222 14.125 149.838 13.175C149.455 12.225 148.913 11.4 148.213 10.7C147.53 9.98333 146.713 9.41667 145.763 9C144.83 8.58333 143.813 8.375 142.713 8.375H141.438V23.125H142.763C143.663 23.125 144.563 22.9917 145.463 22.725C146.38 22.4417 147.205 22.0167 147.938 21.45C148.672 20.8667 149.263 20.1417 149.713 19.275C150.18 18.4083 150.413 17.3833 150.413 16.2ZM169.594 13.75C169.294 13.75 169.06 13.8333 168.894 14C168.744 14.1667 168.602 14.4167 168.469 14.75L164.694 24.2L161.469 16.3L158.269 24.175L154.569 15.025C154.452 14.7417 154.302 14.4583 154.119 14.175C153.952 13.8917 153.727 13.75 153.444 13.75V13.5H156.869V13.75C156.752 13.75 156.602 13.8083 156.419 13.925C156.252 14.025 156.169 14.2 156.169 14.45C156.169 14.4833 156.177 14.5583 156.194 14.675C156.227 14.775 156.26 14.8667 156.294 14.95L158.744 21L161.894 13.225L165.069 21L167.544 14.85C167.627 14.6 167.669 14.425 167.669 14.325C167.669 14.1917 167.627 14.0667 167.544 13.95C167.46 13.8333 167.319 13.7667 167.119 13.75V13.5H169.594V13.75ZM171.464 24V23.75C171.598 23.75 171.714 23.7 171.814 23.6C171.914 23.5 171.998 23.3833 172.064 23.25C172.131 23.1167 172.181 22.975 172.214 22.825C172.248 22.6583 172.264 22.5083 172.264 22.375V15.45C172.264 15.1667 172.223 14.9 172.139 14.65C172.056 14.3833 171.814 14.2417 171.414 14.225V14L173.914 13.2V22.375C173.914 22.5083 173.931 22.6583 173.964 22.825C173.998 22.975 174.048 23.1167 174.114 23.25C174.181 23.3833 174.264 23.5 174.364 23.6C174.464 23.7 174.581 23.75 174.714 23.75V24H171.464ZM171.589 10.8C171.589 10.4667 171.698 10.1833 171.914 9.95C172.148 9.71667 172.431 9.6 172.764 9.6C173.098 9.6 173.381 9.71667 173.614 9.95C173.848 10.1833 173.964 10.4667 173.964 10.8C173.964 11.1333 173.848 11.4083 173.614 11.625C173.381 11.8417 173.098 11.95 172.764 11.95C172.431 11.95 172.148 11.8417 171.914 11.625C171.698 11.4083 171.589 11.1333 171.589 10.8ZM202.533 7.75C202.199 7.75 201.916 7.89167 201.683 8.175C201.449 8.45833 201.291 8.76667 201.208 9.1L196.658 24.1L192.758 11.8L188.858 24.125L184.283 9.125C184.199 8.80833 184.049 8.5 183.833 8.2C183.633 7.9 183.399 7.75 183.133 7.75V7.5H186.683V7.75C186.466 7.75 186.283 7.84167 186.133 8.025C185.999 8.19167 185.933 8.40833 185.933 8.675C185.933 8.75833 185.949 8.86667 185.983 9L189.233 19.6L193.208 7.35L197.033 19.575L200.333 9C200.333 8.96667 200.341 8.9 200.358 8.8C200.391 8.68333 200.408 8.59167 200.408 8.525C200.408 8.29167 200.341 8.10833 200.208 7.975C200.074 7.825 199.941 7.75 199.808 7.75V7.5H202.533V7.75ZM202.495 24V23.75C202.628 23.75 202.745 23.7 202.845 23.6C202.945 23.5 203.028 23.3833 203.095 23.25C203.161 23.1167 203.211 22.975 203.245 22.825C203.278 22.6583 203.295 22.5083 203.295 22.375V15.45C203.295 15.1667 203.253 14.9 203.17 14.65C203.086 14.3833 202.845 14.2417 202.445 14.225V14L204.945 13.2V22.375C204.945 22.5083 204.961 22.6583 204.995 22.825C205.028 22.975 205.078 23.1167 205.145 23.25C205.211 23.3833 205.295 23.5 205.395 23.6C205.495 23.7 205.611 23.75 205.745 23.75V24H202.495ZM202.62 10.8C202.62 10.4667 202.728 10.1833 202.945 9.95C203.178 9.71667 203.461 9.6 203.795 9.6C204.128 9.6 204.411 9.71667 204.645 9.95C204.878 10.1833 204.995 10.4667 204.995 10.8C204.995 11.1333 204.878 11.4083 204.645 11.625C204.411 11.8417 204.128 11.95 203.795 11.95C203.461 11.95 203.178 11.8417 202.945 11.625C202.728 11.4083 202.62 11.1333 202.62 10.8ZM216.369 24V22.9C216.086 23.2167 215.702 23.5083 215.219 23.775C214.752 24.0417 214.161 24.175 213.444 24.175C212.561 24.175 211.786 24.025 211.119 23.725C210.469 23.4083 209.927 23 209.494 22.5C209.061 22 208.736 21.4333 208.519 20.8C208.319 20.15 208.219 19.4833 208.219 18.8C208.219 18.1333 208.327 17.475 208.544 16.825C208.761 16.1583 209.086 15.5667 209.519 15.05C209.952 14.5333 210.494 14.1167 211.144 13.8C211.794 13.4833 212.544 13.325 213.394 13.325C213.961 13.325 214.519 13.4333 215.069 13.65C215.619 13.85 216.052 14.1167 216.369 14.45V9.575C216.369 9.29167 216.327 9.025 216.244 8.775C216.161 8.525 215.919 8.39167 215.519 8.375V8.125L218.019 7.35V22.375C218.019 22.5083 218.036 22.6583 218.069 22.825C218.102 22.975 218.152 23.1167 218.219 23.25C218.286 23.3833 218.369 23.5 218.469 23.6C218.569 23.7 218.686 23.75 218.819 23.75V24H216.369ZM213.619 23.35C213.969 23.35 214.311 23.2833 214.644 23.15C214.977 23 215.269 22.8083 215.519 22.575C215.769 22.325 215.969 22.0417 216.119 21.725C216.286 21.3917 216.369 21.0333 216.369 20.65V17.225C216.369 16.7583 216.269 16.3417 216.069 15.975C215.869 15.5917 215.619 15.2667 215.319 15C215.019 14.7333 214.686 14.5333 214.319 14.4C213.969 14.25 213.627 14.175 213.294 14.175C212.744 14.175 212.252 14.3083 211.819 14.575C211.386 14.825 211.019 15.1583 210.719 15.575C210.419 15.975 210.194 16.4333 210.044 16.95C209.894 17.45 209.819 17.95 209.819 18.45C209.819 19.0333 209.902 19.6167 210.069 20.2C210.236 20.7667 210.477 21.2833 210.794 21.75C211.127 22.2 211.527 22.575 211.994 22.875C212.461 23.175 213.002 23.3333 213.619 23.35ZM223.886 13.225V23.475C223.886 23.9917 223.82 24.4667 223.686 24.9C223.57 25.3333 223.411 25.7333 223.211 26.1C223.011 26.4667 222.786 26.7917 222.536 27.075C222.286 27.375 222.028 27.6417 221.761 27.875C221.128 28.425 220.42 28.8667 219.636 29.2L219.536 28.975C220.036 28.6583 220.486 28.25 220.886 27.75C221.22 27.3333 221.528 26.8 221.811 26.15C222.111 25.5167 222.261 24.75 222.261 23.85V15.475C222.261 15.1917 222.22 14.925 222.136 14.675C222.053 14.4083 221.811 14.2667 221.411 14.25V14.025L223.886 13.225ZM221.686 10.8C221.686 10.4667 221.803 10.1833 222.036 9.95C222.27 9.71667 222.553 9.6 222.886 9.6C223.22 9.6 223.495 9.71667 223.711 9.95C223.945 10.1833 224.061 10.4667 224.061 10.8C224.061 11.1333 223.945 11.4083 223.711 11.625C223.495 11.8417 223.22 11.95 222.886 11.95C222.553 11.95 222.27 11.8417 222.036 11.625C221.803 11.4083 221.686 11.1333 221.686 10.8ZM233.061 24V22.725L232.936 22.85C232.519 23.2667 232.036 23.5917 231.486 23.825C230.953 24.0583 230.303 24.175 229.536 24.175C228.953 24.175 228.453 24.1083 228.036 23.975C227.619 23.8417 227.278 23.6583 227.011 23.425C226.744 23.175 226.544 22.8917 226.411 22.575C226.294 22.2583 226.236 21.925 226.236 21.575C226.236 21.0083 226.386 20.5083 226.686 20.075C227.003 19.6417 227.453 19.2583 228.036 18.925C228.619 18.5917 229.328 18.2917 230.161 18.025C231.011 17.7417 231.978 17.4667 233.061 17.2C233.028 16.55 232.894 16.025 232.661 15.625C232.428 15.225 232.153 14.9167 231.836 14.7C231.519 14.4667 231.186 14.3167 230.836 14.25C230.486 14.1667 230.186 14.125 229.936 14.125C229.503 14.125 229.119 14.1917 228.786 14.325C228.469 14.4583 228.186 14.6333 227.936 14.85C227.703 15.05 227.503 15.275 227.336 15.525C227.169 15.7583 227.036 15.9833 226.936 16.2H226.711V14.375C226.844 14.3583 226.969 14.3167 227.086 14.25C227.203 14.1833 227.344 14.1167 227.511 14.05C227.761 13.95 228.103 13.8083 228.536 13.625C228.969 13.425 229.578 13.325 230.361 13.325C231.278 13.325 232.019 13.4417 232.586 13.675C233.153 13.9083 233.586 14.2167 233.886 14.6C234.203 14.9833 234.411 15.425 234.511 15.925C234.611 16.4083 234.661 16.9083 234.661 17.425V22.375C234.661 22.7083 234.736 23.025 234.886 23.325C235.036 23.6083 235.236 23.75 235.486 23.75V24H233.061ZM233.061 21.625V18.05L232.811 18.1C232.411 18.2 231.919 18.3333 231.336 18.5C230.769 18.6667 230.228 18.8833 229.711 19.15C229.194 19.4167 228.753 19.7333 228.386 20.1C228.019 20.4667 227.836 20.8917 227.836 21.375C227.836 21.9083 228.053 22.35 228.486 22.7C228.919 23.05 229.486 23.225 230.186 23.225C230.736 23.225 231.219 23.1083 231.636 22.875C232.053 22.625 232.436 22.3083 232.786 21.925L233.061 21.625ZM240.52 27.575C240.286 28.275 239.986 28.75 239.62 29C239.27 29.25 238.903 29.375 238.52 29.375C238.27 29.375 238.045 29.3417 237.845 29.275C237.661 29.2083 237.495 29.125 237.345 29.025C237.211 28.9417 237.103 28.8583 237.02 28.775C236.936 28.6917 236.886 28.625 236.87 28.575L237.695 26.55C237.778 26.85 237.861 27.075 237.945 27.225C238.028 27.3917 238.145 27.5417 238.295 27.675C238.445 27.8083 238.628 27.875 238.845 27.875C239.245 27.875 239.561 27.5833 239.795 27L241.02 23.925L236.995 14.825C236.911 14.625 236.77 14.4 236.57 14.15C236.386 13.8833 236.128 13.75 235.795 13.75V13.5H239.095V13.75C239.028 13.75 238.945 13.8083 238.845 13.925C238.745 14.0417 238.695 14.1917 238.695 14.375C238.695 14.525 238.728 14.6583 238.795 14.775L241.87 21.85L244.82 14.625C244.87 14.5083 244.895 14.4 244.895 14.3C244.895 14.1333 244.836 14 244.72 13.9C244.62 13.8 244.511 13.75 244.395 13.75V13.5H246.82V13.75C246.553 13.75 246.32 13.8667 246.12 14.1C245.936 14.3167 245.786 14.5667 245.67 14.85L240.52 27.575ZM254.96 24V22.725L254.835 22.85C254.419 23.2667 253.935 23.5917 253.385 23.825C252.852 24.0583 252.202 24.175 251.435 24.175C250.852 24.175 250.352 24.1083 249.935 23.975C249.519 23.8417 249.177 23.6583 248.91 23.425C248.644 23.175 248.444 22.8917 248.31 22.575C248.194 22.2583 248.135 21.925 248.135 21.575C248.135 21.0083 248.285 20.5083 248.585 20.075C248.902 19.6417 249.352 19.2583 249.935 18.925C250.519 18.5917 251.227 18.2917 252.06 18.025C252.91 17.7417 253.877 17.4667 254.96 17.2C254.927 16.55 254.794 16.025 254.56 15.625C254.327 15.225 254.052 14.9167 253.735 14.7C253.419 14.4667 253.085 14.3167 252.735 14.25C252.385 14.1667 252.085 14.125 251.835 14.125C251.402 14.125 251.019 14.1917 250.685 14.325C250.369 14.4583 250.085 14.6333 249.835 14.85C249.602 15.05 249.402 15.275 249.235 15.525C249.069 15.7583 248.935 15.9833 248.835 16.2H248.61V14.375C248.744 14.3583 248.869 14.3167 248.985 14.25C249.102 14.1833 249.244 14.1167 249.41 14.05C249.66 13.95 250.002 13.8083 250.435 13.625C250.869 13.425 251.477 13.325 252.26 13.325C253.177 13.325 253.919 13.4417 254.485 13.675C255.052 13.9083 255.485 14.2167 255.785 14.6C256.102 14.9833 256.31 15.425 256.41 15.925C256.51 16.4083 256.56 16.9083 256.56 17.425V22.375C256.56 22.7083 256.635 23.025 256.785 23.325C256.935 23.6083 257.135 23.75 257.385 23.75V24H254.96ZM254.96 21.625V18.05L254.71 18.1C254.31 18.2 253.819 18.3333 253.235 18.5C252.669 18.6667 252.127 18.8833 251.61 19.15C251.094 19.4167 250.652 19.7333 250.285 20.1C249.919 20.4667 249.735 20.8917 249.735 21.375C249.735 21.9083 249.952 22.35 250.385 22.7C250.819 23.05 251.385 23.225 252.085 23.225C252.635 23.225 253.119 23.1083 253.535 22.875C253.952 22.625 254.335 22.3083 254.685 21.925L254.96 21.625ZM269.836 22.375C269.836 22.5083 269.853 22.6583 269.886 22.825C269.919 22.975 269.969 23.1167 270.036 23.25C270.119 23.3833 270.203 23.5 270.286 23.6C270.386 23.7 270.503 23.75 270.636 23.75V24H267.411V23.75C267.528 23.75 267.636 23.7 267.736 23.6C267.836 23.5 267.919 23.3833 267.986 23.25C268.069 23.1167 268.128 22.975 268.161 22.825C268.194 22.6583 268.211 22.5083 268.211 22.375V17.725C268.211 17.125 268.128 16.6 267.961 16.15C267.794 15.7 267.569 15.325 267.286 15.025C267.003 14.725 266.678 14.5083 266.311 14.375C265.961 14.225 265.603 14.15 265.236 14.15C264.869 14.15 264.503 14.225 264.136 14.375C263.786 14.525 263.469 14.725 263.186 14.975C262.919 15.2083 262.694 15.4917 262.511 15.825C262.344 16.1417 262.261 16.475 262.261 16.825V22.375C262.261 22.5083 262.278 22.6583 262.311 22.825C262.344 22.975 262.394 23.1167 262.461 23.25C262.544 23.3833 262.628 23.5 262.711 23.6C262.811 23.7 262.928 23.75 263.061 23.75V24H259.811V23.75C259.928 23.75 260.036 23.7 260.136 23.6C260.236 23.5 260.319 23.3833 260.386 23.25C260.469 23.1167 260.528 22.975 260.561 22.825C260.594 22.6583 260.611 22.5083 260.611 22.375V15.475C260.611 15.1917 260.569 14.925 260.486 14.675C260.403 14.4083 260.161 14.2667 259.761 14.25V14.025L262.261 13.225V14.6C262.378 14.4667 262.528 14.325 262.711 14.175C262.894 14.0083 263.111 13.8583 263.361 13.725C263.628 13.575 263.928 13.4583 264.261 13.375C264.611 13.275 265.019 13.225 265.486 13.225C266.269 13.225 266.936 13.3583 267.486 13.625C268.036 13.8917 268.486 14.2417 268.836 14.675C269.186 15.0917 269.436 15.5583 269.586 16.075C269.753 16.575 269.836 17.0667 269.836 17.55V22.375ZM275.542 14.35V20.375C275.542 20.8083 275.55 21.2 275.567 21.55C275.583 21.9 275.625 22.1917 275.692 22.425C275.758 22.6583 275.858 22.8417 275.992 22.975C276.125 23.0917 276.308 23.15 276.542 23.15C276.892 23.15 277.217 22.9833 277.517 22.65C277.833 22.3167 278.033 21.9167 278.117 21.45H278.342V23.275C278.192 23.275 278.067 23.325 277.967 23.425C277.833 23.5417 277.642 23.6667 277.392 23.8C277.158 23.9333 276.8 24 276.317 24C275.717 24 275.25 23.8833 274.917 23.65C274.583 23.4167 274.342 23.1083 274.192 22.725C274.042 22.3417 273.95 21.9167 273.917 21.45C273.9 20.9833 273.892 20.5083 273.892 20.025V14.35H272.492V13.5H273.892V11.275C273.892 10.9917 273.85 10.7333 273.767 10.5C273.7 10.25 273.458 10.1167 273.042 10.1V9.85L275.542 9.05V13.5H278.342V14.35H275.542ZM285.471 24.175C284.637 24.175 283.887 24.0417 283.221 23.775C282.554 23.4917 281.979 23.1167 281.496 22.65C281.029 22.1667 280.662 21.6 280.396 20.95C280.146 20.3 280.021 19.5917 280.021 18.825C280.021 18.0083 280.162 17.2667 280.446 16.6C280.729 15.9167 281.121 15.3333 281.621 14.85C282.121 14.3667 282.712 13.9917 283.396 13.725C284.079 13.4583 284.821 13.325 285.621 13.325C286.421 13.325 287.154 13.4583 287.821 13.725C288.487 13.975 289.062 14.3333 289.546 14.8C290.029 15.2667 290.404 15.825 290.671 16.475C290.937 17.1083 291.071 17.8083 291.071 18.575C291.071 19.2917 290.946 19.9917 290.696 20.675C290.462 21.3417 290.104 21.9333 289.621 22.45C289.154 22.9667 288.571 23.3833 287.871 23.7C287.187 24.0167 286.387 24.175 285.471 24.175ZM285.321 14.15C284.721 14.1833 284.187 14.3333 283.721 14.6C283.271 14.85 282.887 15.1833 282.571 15.6C282.271 16 282.037 16.4583 281.871 16.975C281.721 17.4917 281.646 18.0167 281.646 18.55C281.646 19.1667 281.737 19.7667 281.921 20.35C282.121 20.9167 282.396 21.425 282.746 21.875C283.112 22.325 283.546 22.6833 284.046 22.95C284.546 23.2167 285.104 23.35 285.721 23.35C286.337 23.35 286.879 23.2167 287.346 22.95C287.829 22.6833 288.229 22.3417 288.546 21.925C288.862 21.4917 289.096 21.0083 289.246 20.475C289.412 19.9417 289.496 19.4083 289.496 18.875C289.496 18.325 289.412 17.775 289.246 17.225C289.079 16.6583 288.821 16.15 288.471 15.7C288.121 15.2333 287.679 14.8583 287.146 14.575C286.629 14.2917 286.021 14.15 285.321 14.15Z" fill="#F5F5F6"/>
</svg>
