<svg width="429" height="48" viewBox="0 0 429 48" fill="none" xmlns="http://www.w3.org/2000/svg">
<path d="M19.44 5.63428H16.56V20.1578L6.29025 9.8881L4.25378 11.9246L14.5235 22.1943H0V25.0743H14.5235L4.25382 35.344L6.29029 37.3805L16.56 27.1107V41.6343H19.44V27.1108L29.7096 37.3804L31.7461 35.3439L21.4764 25.0743H36V22.1943H21.4765L31.7461 11.9246L29.7097 9.88814L19.44 20.1578V5.63428Z" fill="#E94B26"/>
<path d="M67.059 34.7443H67.254V35.1343H61.755V34.7443H61.95C62.132 34.7443 62.301 34.6663 62.457 34.5103C62.613 34.3543 62.743 34.1723 62.847 33.9643C62.977 33.7563 63.068 33.5353 63.12 33.3013C63.172 33.0413 63.198 32.8073 63.198 32.5993V11.8123C63.198 11.6303 63.172 11.4223 63.12 11.1883C63.068 10.9543 62.977 10.7333 62.847 10.5253C62.743 10.3173 62.613 10.1483 62.457 10.0183C62.301 9.86228 62.132 9.78428 61.95 9.78428H61.755V9.39428H68.541C71.141 9.39428 73.143 9.90128 74.547 10.9153C75.977 11.9293 76.692 13.4243 76.692 15.4003C76.692 16.3883 76.523 17.2593 76.185 18.0133C75.873 18.7413 75.444 19.3783 74.898 19.9243C74.352 20.4443 73.702 20.8733 72.948 21.2113C72.22 21.5233 71.44 21.7573 70.608 21.9133L73.416 26.2033C74.092 27.2433 74.781 28.2703 75.483 29.2843C76.185 30.2723 76.874 31.2993 77.55 32.3653C77.732 32.6253 77.927 32.8983 78.135 33.1843C78.369 33.4703 78.603 33.7303 78.837 33.9643C79.097 34.1983 79.357 34.3933 79.617 34.5493C79.903 34.6793 80.189 34.7443 80.475 34.7443V35.1343H78.798C77.758 35.1343 76.9 34.8873 76.224 34.3933C75.574 33.8733 75.028 33.2753 74.586 32.5993C73.416 30.8833 72.246 29.1413 71.076 27.3733C69.932 25.6053 68.788 23.8633 67.644 22.1473C67.358 22.1213 67.046 22.0953 66.708 22.0693C66.396 22.0173 66.097 21.9653 65.811 21.9133V32.5993C65.811 32.8073 65.837 33.0413 65.889 33.3013C65.941 33.5353 66.019 33.7563 66.123 33.9643C66.253 34.1723 66.383 34.3543 66.513 34.5103C66.669 34.6663 66.851 34.7443 67.059 34.7443ZM65.811 10.7203V20.6263H66.006C66.214 20.6523 66.539 20.6783 66.981 20.7043C67.449 20.7043 68.021 20.7043 68.697 20.7043C69.243 20.7043 69.815 20.6263 70.413 20.4703C71.037 20.2883 71.609 20.0023 72.129 19.6123C72.675 19.1963 73.117 18.6633 73.455 18.0133C73.819 17.3633 74.001 16.5443 74.001 15.5563C74.001 14.5683 73.806 13.7623 73.416 13.1383C73.052 12.5143 72.532 12.0203 71.856 11.6563C71.206 11.2923 70.413 11.0453 69.477 10.9153C68.541 10.7853 67.514 10.7203 66.396 10.7203H65.811ZM83.3625 35.1343V34.7443C83.5705 34.7443 83.7525 34.6663 83.9085 34.5103C84.0645 34.3543 84.1945 34.1723 84.2985 33.9643C84.4025 33.7563 84.4805 33.5353 84.5325 33.3013C84.5845 33.0413 84.6105 32.8073 84.6105 32.5993V21.7963C84.6105 21.3543 84.5455 20.9383 84.4155 20.5483C84.2855 20.1323 83.9085 19.9113 83.2845 19.8853V19.5343L87.1845 18.2863V32.5993C87.1845 32.8073 87.2105 33.0413 87.2625 33.3013C87.3145 33.5353 87.3925 33.7563 87.4965 33.9643C87.6005 34.1723 87.7305 34.3543 87.8865 34.5103C88.0425 34.6663 88.2245 34.7443 88.4325 34.7443V35.1343H83.3625ZM83.5575 14.5423C83.5575 14.0223 83.7265 13.5803 84.0645 13.2163C84.4285 12.8523 84.8705 12.6703 85.3905 12.6703C85.9105 12.6703 86.3525 12.8523 86.7165 13.2163C87.0805 13.5803 87.2625 14.0223 87.2625 14.5423C87.2625 15.0623 87.0805 15.4913 86.7165 15.8293C86.3525 16.1673 85.9105 16.3363 85.3905 16.3363C84.8705 16.3363 84.4285 16.1673 84.0645 15.8293C83.7265 15.4913 83.5575 15.0623 83.5575 14.5423ZM108.361 18.7543V19.1443C108.179 19.1443 107.997 19.2093 107.815 19.3393C107.633 19.4693 107.451 19.6383 107.269 19.8463C107.113 20.0543 106.957 20.2883 106.801 20.5483C106.671 20.7823 106.554 21.0033 106.45 21.2113L99.7416 35.7973L93.0726 21.0553C92.8906 20.6393 92.6566 20.2233 92.3706 19.8073C92.0846 19.3653 91.7206 19.1443 91.2786 19.1443V18.7543H96.6216V19.1443C96.4656 19.1443 96.2576 19.2223 95.9976 19.3783C95.7636 19.5343 95.6466 19.7553 95.6466 20.0413C95.6466 20.1713 95.7506 20.4703 95.9586 20.9383L100.444 31.0393L105.28 20.5093C105.384 20.2493 105.436 20.0543 105.436 19.9243C105.436 19.6903 105.319 19.5083 105.085 19.3783C104.877 19.2223 104.695 19.1443 104.539 19.1443V18.7543H108.361ZM121.068 35.1343V33.1453L120.873 33.3403C120.223 33.9903 119.469 34.4973 118.611 34.8613C117.779 35.2253 116.765 35.4073 115.569 35.4073C114.659 35.4073 113.879 35.3033 113.229 35.0953C112.579 34.8873 112.046 34.6013 111.63 34.2373C111.214 33.8473 110.902 33.4053 110.694 32.9113C110.512 32.4173 110.421 31.8973 110.421 31.3513C110.421 30.4673 110.655 29.6873 111.123 29.0113C111.617 28.3353 112.319 27.7373 113.229 27.2173C114.139 26.6973 115.244 26.2293 116.544 25.8133C117.87 25.3713 119.378 24.9423 121.068 24.5263C121.016 23.5123 120.808 22.6933 120.444 22.0693C120.08 21.4453 119.651 20.9643 119.157 20.6263C118.663 20.2623 118.143 20.0283 117.597 19.9243C117.051 19.7943 116.583 19.7293 116.193 19.7293C115.517 19.7293 114.919 19.8333 114.399 20.0413C113.905 20.2493 113.463 20.5223 113.073 20.8603C112.709 21.1723 112.397 21.5233 112.137 21.9133C111.877 22.2773 111.669 22.6283 111.513 22.9663H111.162V20.1193C111.37 20.0933 111.565 20.0283 111.747 19.9243C111.929 19.8203 112.15 19.7163 112.41 19.6123C112.8 19.4563 113.333 19.2353 114.009 18.9493C114.685 18.6373 115.634 18.4813 116.856 18.4813C118.286 18.4813 119.443 18.6633 120.327 19.0273C121.211 19.3913 121.887 19.8723 122.355 20.4703C122.849 21.0683 123.174 21.7573 123.33 22.5373C123.486 23.2913 123.564 24.0713 123.564 24.8773V32.5993C123.564 33.1193 123.681 33.6133 123.915 34.0813C124.149 34.5233 124.461 34.7443 124.851 34.7443V35.1343H121.068ZM121.068 31.4293V25.8523L120.678 25.9303C120.054 26.0863 119.287 26.2943 118.377 26.5543C117.493 26.8143 116.648 27.1523 115.842 27.5683C115.036 27.9843 114.347 28.4783 113.775 29.0503C113.203 29.6223 112.917 30.2853 112.917 31.0393C112.917 31.8713 113.255 32.5603 113.931 33.1063C114.607 33.6523 115.491 33.9253 116.583 33.9253C117.441 33.9253 118.195 33.7433 118.845 33.3793C119.495 32.9893 120.093 32.4953 120.639 31.8973L121.068 31.4293ZM144.274 32.5993C144.274 32.8073 144.3 33.0413 144.352 33.3013C144.404 33.5353 144.482 33.7563 144.586 33.9643C144.716 34.1723 144.846 34.3543 144.976 34.5103C145.132 34.6663 145.314 34.7443 145.522 34.7443V35.1343H140.491V34.7443C140.673 34.7443 140.842 34.6663 140.998 34.5103C141.154 34.3543 141.284 34.1723 141.388 33.9643C141.518 33.7563 141.609 33.5353 141.661 33.3013C141.713 33.0413 141.739 32.8073 141.739 32.5993V25.3453C141.739 24.4093 141.609 23.5903 141.349 22.8883C141.089 22.1863 140.738 21.6013 140.296 21.1333C139.854 20.6653 139.347 20.3273 138.775 20.1193C138.229 19.8853 137.67 19.7683 137.098 19.7683C136.526 19.7683 135.954 19.8853 135.382 20.1193C134.836 20.3533 134.342 20.6653 133.9 21.0553C133.484 21.4193 133.133 21.8613 132.847 22.3813C132.587 22.8753 132.457 23.3953 132.457 23.9413V32.5993C132.457 32.8073 132.483 33.0413 132.535 33.3013C132.587 33.5353 132.665 33.7563 132.769 33.9643C132.899 34.1723 133.029 34.3543 133.159 34.5103C133.315 34.6663 133.497 34.7443 133.705 34.7443V35.1343H128.635V34.7443C128.817 34.7443 128.986 34.6663 129.142 34.5103C129.298 34.3543 129.428 34.1723 129.532 33.9643C129.662 33.7563 129.753 33.5353 129.805 33.3013C129.857 33.0413 129.883 32.8073 129.883 32.5993V21.8353C129.883 21.3933 129.818 20.9773 129.688 20.5873C129.558 20.1713 129.181 19.9503 128.557 19.9243V19.5733L132.457 18.3253V20.4703C132.639 20.2623 132.873 20.0413 133.159 19.8073C133.445 19.5473 133.783 19.3133 134.173 19.1053C134.589 18.8713 135.057 18.6893 135.577 18.5593C136.123 18.4033 136.76 18.3253 137.488 18.3253C138.71 18.3253 139.75 18.5333 140.608 18.9493C141.466 19.3653 142.168 19.9113 142.714 20.5873C143.26 21.2373 143.65 21.9653 143.884 22.7713C144.144 23.5513 144.274 24.3183 144.274 25.0723V32.5993ZM161.755 35.1343V33.4183C161.313 33.9123 160.715 34.3673 159.961 34.7833C159.233 35.1993 158.31 35.4073 157.192 35.4073C155.814 35.4073 154.605 35.1733 153.565 34.7053C152.551 34.2113 151.706 33.5743 151.03 32.7943C150.354 32.0143 149.847 31.1303 149.509 30.1423C149.197 29.1283 149.041 28.0883 149.041 27.0223C149.041 25.9823 149.21 24.9553 149.548 23.9413C149.886 22.9013 150.393 21.9783 151.069 21.1723C151.745 20.3663 152.59 19.7163 153.604 19.2223C154.618 18.7283 155.788 18.4813 157.114 18.4813C157.998 18.4813 158.869 18.6503 159.727 18.9883C160.585 19.3003 161.261 19.7163 161.755 20.2363V12.6313C161.755 12.1893 161.69 11.7733 161.56 11.3833C161.43 10.9933 161.053 10.7853 160.429 10.7593V10.3693L164.329 9.16028V32.5993C164.329 32.8073 164.355 33.0413 164.407 33.3013C164.459 33.5353 164.537 33.7563 164.641 33.9643C164.745 34.1723 164.875 34.3543 165.031 34.5103C165.187 34.6663 165.369 34.7443 165.577 34.7443V35.1343H161.755ZM157.465 34.1203C158.011 34.1203 158.544 34.0163 159.064 33.8083C159.584 33.5743 160.039 33.2753 160.429 32.9113C160.819 32.5213 161.131 32.0793 161.365 31.5853C161.625 31.0653 161.755 30.5063 161.755 29.9083V24.5653C161.755 23.8373 161.599 23.1873 161.287 22.6153C160.975 22.0173 160.585 21.5103 160.117 21.0943C159.649 20.6783 159.129 20.3663 158.557 20.1583C158.011 19.9243 157.478 19.8073 156.958 19.8073C156.1 19.8073 155.333 20.0153 154.657 20.4313C153.981 20.8213 153.409 21.3413 152.941 21.9913C152.473 22.6153 152.122 23.3303 151.888 24.1363C151.654 24.9163 151.537 25.6963 151.537 26.4763C151.537 27.3863 151.667 28.2963 151.927 29.2063C152.187 30.0903 152.564 30.8963 153.058 31.6243C153.578 32.3263 154.202 32.9113 154.93 33.3793C155.658 33.8473 156.503 34.0943 157.465 34.1203ZM169.894 35.1343V34.7443C170.102 34.7443 170.284 34.6663 170.44 34.5103C170.596 34.3543 170.726 34.1723 170.83 33.9643C170.934 33.7563 171.012 33.5353 171.064 33.3013C171.116 33.0413 171.142 32.8073 171.142 32.5993V21.7963C171.142 21.3543 171.077 20.9383 170.947 20.5483C170.817 20.1323 170.44 19.9113 169.816 19.8853V19.5343L173.716 18.2863V32.5993C173.716 32.8073 173.742 33.0413 173.794 33.3013C173.846 33.5353 173.924 33.7563 174.028 33.9643C174.132 34.1723 174.262 34.3543 174.418 34.5103C174.574 34.6663 174.756 34.7443 174.964 34.7443V35.1343H169.894ZM170.089 14.5423C170.089 14.0223 170.258 13.5803 170.596 13.2163C170.96 12.8523 171.402 12.6703 171.922 12.6703C172.442 12.6703 172.884 12.8523 173.248 13.2163C173.612 13.5803 173.794 14.0223 173.794 14.5423C173.794 15.0623 173.612 15.4913 173.248 15.8293C172.884 16.1673 172.442 16.3363 171.922 16.3363C171.402 16.3363 170.96 16.1673 170.596 15.8293C170.258 15.4913 170.089 15.0623 170.089 14.5423ZM189.228 34.7443H189.423C189.605 34.7443 189.774 34.6663 189.93 34.5103C190.086 34.3543 190.216 34.1723 190.32 33.9643C190.45 33.7563 190.541 33.5353 190.593 33.3013C190.645 33.0413 190.671 32.8073 190.671 32.5993V11.8123C190.671 11.6303 190.645 11.4223 190.593 11.1883C190.541 10.9543 190.463 10.7333 190.359 10.5253C190.255 10.3173 190.125 10.1483 189.969 10.0183C189.813 9.86228 189.631 9.78428 189.423 9.78428H189.228V9.39428H196.755C198.809 9.39428 200.655 9.75828 202.293 10.4863C203.931 11.1883 205.309 12.1503 206.427 13.3723C207.571 14.5683 208.442 15.9463 209.04 17.5063C209.638 19.0663 209.937 20.6913 209.937 22.3813C209.937 23.9673 209.651 25.5273 209.079 27.0613C208.507 28.5693 207.649 29.9213 206.505 31.1173C205.361 32.3133 203.931 33.2883 202.215 34.0423C200.499 34.7703 198.51 35.1343 196.248 35.1343H189.228V34.7443ZM207.285 22.9663C207.285 21.3023 206.986 19.7293 206.388 18.2473C205.79 16.7653 204.945 15.4783 203.853 14.3863C202.787 13.2683 201.513 12.3843 200.031 11.7343C198.575 11.0843 196.989 10.7593 195.273 10.7593H193.284V33.7693H195.351C196.755 33.7693 198.159 33.5613 199.563 33.1453C200.993 32.7033 202.28 32.0403 203.424 31.1563C204.568 30.2463 205.491 29.1153 206.193 27.7633C206.921 26.4113 207.285 24.8123 207.285 22.9663ZM237.206 19.1443C236.738 19.1443 236.374 19.2743 236.114 19.5343C235.88 19.7943 235.659 20.1843 235.451 20.7043L229.562 35.4463L224.531 23.1223L219.539 35.4073L213.767 21.1333C213.585 20.6913 213.351 20.2493 213.065 19.8073C212.805 19.3653 212.454 19.1443 212.012 19.1443V18.7543H217.355V19.1443C217.173 19.1443 216.939 19.2353 216.653 19.4173C216.393 19.5733 216.263 19.8463 216.263 20.2363C216.263 20.2883 216.276 20.4053 216.302 20.5873C216.354 20.7433 216.406 20.8863 216.458 21.0163L220.28 30.4543L225.194 18.3253L230.147 30.4543L234.008 20.8603C234.138 20.4703 234.203 20.1973 234.203 20.0413C234.203 19.8333 234.138 19.6383 234.008 19.4563C233.878 19.2743 233.657 19.1703 233.345 19.1443V18.7543H237.206V19.1443ZM240.124 35.1343V34.7443C240.332 34.7443 240.514 34.6663 240.67 34.5103C240.826 34.3543 240.956 34.1723 241.06 33.9643C241.164 33.7563 241.242 33.5353 241.294 33.3013C241.346 33.0413 241.372 32.8073 241.372 32.5993V21.7963C241.372 21.3543 241.307 20.9383 241.177 20.5483C241.047 20.1323 240.67 19.9113 240.046 19.8853V19.5343L243.946 18.2863V32.5993C243.946 32.8073 243.972 33.0413 244.024 33.3013C244.076 33.5353 244.154 33.7563 244.258 33.9643C244.362 34.1723 244.492 34.3543 244.648 34.5103C244.804 34.6663 244.986 34.7443 245.194 34.7443V35.1343H240.124ZM240.319 14.5423C240.319 14.0223 240.488 13.5803 240.826 13.2163C241.19 12.8523 241.632 12.6703 242.152 12.6703C242.672 12.6703 243.114 12.8523 243.478 13.2163C243.842 13.5803 244.024 14.0223 244.024 14.5423C244.024 15.0623 243.842 15.4913 243.478 15.8293C243.114 16.1673 242.672 16.3363 242.152 16.3363C241.632 16.3363 241.19 16.1673 240.826 15.8293C240.488 15.4913 240.319 15.0623 240.319 14.5423ZM288.591 9.78428C288.071 9.78428 287.629 10.0053 287.265 10.4473C286.901 10.8893 286.654 11.3703 286.524 11.8903L279.426 35.2903L273.342 16.1023L267.258 35.3293L260.121 11.9293C259.991 11.4353 259.757 10.9543 259.419 10.4863C259.107 10.0183 258.743 9.78428 258.327 9.78428V9.39428H263.865V9.78428C263.527 9.78428 263.241 9.92728 263.007 10.2133C262.799 10.4733 262.695 10.8113 262.695 11.2273C262.695 11.3573 262.721 11.5263 262.773 11.7343L267.843 28.2703L274.044 9.16028L280.011 28.2313L285.159 11.7343C285.159 11.6823 285.172 11.5783 285.198 11.4223C285.25 11.2403 285.276 11.0973 285.276 10.9933C285.276 10.6293 285.172 10.3433 284.964 10.1353C284.756 9.90128 284.548 9.78428 284.34 9.78428V9.39428H288.591V9.78428ZM288.531 35.1343V34.7443C288.739 34.7443 288.921 34.6663 289.077 34.5103C289.233 34.3543 289.363 34.1723 289.467 33.9643C289.571 33.7563 289.649 33.5353 289.701 33.3013C289.753 33.0413 289.779 32.8073 289.779 32.5993V21.7963C289.779 21.3543 289.714 20.9383 289.584 20.5483C289.454 20.1323 289.077 19.9113 288.453 19.8853V19.5343L292.353 18.2863V32.5993C292.353 32.8073 292.379 33.0413 292.431 33.3013C292.483 33.5353 292.561 33.7563 292.665 33.9643C292.769 34.1723 292.899 34.3543 293.055 34.5103C293.211 34.6663 293.393 34.7443 293.601 34.7443V35.1343H288.531ZM288.726 14.5423C288.726 14.0223 288.895 13.5803 289.233 13.2163C289.597 12.8523 290.039 12.6703 290.559 12.6703C291.079 12.6703 291.521 12.8523 291.885 13.2163C292.249 13.5803 292.431 14.0223 292.431 14.5423C292.431 15.0623 292.249 15.4913 291.885 15.8293C291.521 16.1673 291.079 16.3363 290.559 16.3363C290.039 16.3363 289.597 16.1673 289.233 15.8293C288.895 15.4913 288.726 15.0623 288.726 14.5423ZM310.176 35.1343V33.4183C309.734 33.9123 309.136 34.3673 308.382 34.7833C307.654 35.1993 306.731 35.4073 305.613 35.4073C304.235 35.4073 303.026 35.1733 301.986 34.7053C300.972 34.2113 300.127 33.5743 299.451 32.7943C298.775 32.0143 298.268 31.1303 297.93 30.1423C297.618 29.1283 297.462 28.0883 297.462 27.0223C297.462 25.9823 297.631 24.9553 297.969 23.9413C298.307 22.9013 298.814 21.9783 299.49 21.1723C300.166 20.3663 301.011 19.7163 302.025 19.2223C303.039 18.7283 304.209 18.4813 305.535 18.4813C306.419 18.4813 307.29 18.6503 308.148 18.9883C309.006 19.3003 309.682 19.7163 310.176 20.2363V12.6313C310.176 12.1893 310.111 11.7733 309.981 11.3833C309.851 10.9933 309.474 10.7853 308.85 10.7593V10.3693L312.75 9.16028V32.5993C312.75 32.8073 312.776 33.0413 312.828 33.3013C312.88 33.5353 312.958 33.7563 313.062 33.9643C313.166 34.1723 313.296 34.3543 313.452 34.5103C313.608 34.6663 313.79 34.7443 313.998 34.7443V35.1343H310.176ZM305.886 34.1203C306.432 34.1203 306.965 34.0163 307.485 33.8083C308.005 33.5743 308.46 33.2753 308.85 32.9113C309.24 32.5213 309.552 32.0793 309.786 31.5853C310.046 31.0653 310.176 30.5063 310.176 29.9083V24.5653C310.176 23.8373 310.02 23.1873 309.708 22.6153C309.396 22.0173 309.006 21.5103 308.538 21.0943C308.07 20.6783 307.55 20.3663 306.978 20.1583C306.432 19.9243 305.899 19.8073 305.379 19.8073C304.521 19.8073 303.754 20.0153 303.078 20.4313C302.402 20.8213 301.83 21.3413 301.362 21.9913C300.894 22.6153 300.543 23.3303 300.309 24.1363C300.075 24.9163 299.958 25.6963 299.958 26.4763C299.958 27.3863 300.088 28.2963 300.348 29.2063C300.608 30.0903 300.985 30.8963 301.479 31.6243C301.999 32.3263 302.623 32.9113 303.351 33.3793C304.079 33.8473 304.924 34.0943 305.886 34.1203ZM321.903 18.3253V34.3153C321.903 35.1213 321.799 35.8623 321.591 36.5383C321.409 37.2143 321.162 37.8383 320.85 38.4103C320.538 38.9823 320.187 39.4893 319.797 39.9313C319.407 40.3993 319.004 40.8153 318.588 41.1793C317.6 42.0373 316.495 42.7263 315.273 43.2463L315.117 42.8953C315.897 42.4013 316.599 41.7643 317.223 40.9843C317.743 40.3343 318.224 39.5023 318.666 38.4883C319.134 37.5003 319.368 36.3043 319.368 34.9003V21.8353C319.368 21.3933 319.303 20.9773 319.173 20.5873C319.043 20.1713 318.666 19.9503 318.042 19.9243V19.5733L321.903 18.3253ZM318.471 14.5423C318.471 14.0223 318.653 13.5803 319.017 13.2163C319.381 12.8523 319.823 12.6703 320.343 12.6703C320.863 12.6703 321.292 12.8523 321.63 13.2163C321.994 13.5803 322.176 14.0223 322.176 14.5423C322.176 15.0623 321.994 15.4913 321.63 15.8293C321.292 16.1673 320.863 16.3363 320.343 16.3363C319.823 16.3363 319.381 16.1673 319.017 15.8293C318.653 15.4913 318.471 15.0623 318.471 14.5423ZM336.215 35.1343V33.1453L336.02 33.3403C335.37 33.9903 334.616 34.4973 333.758 34.8613C332.926 35.2253 331.912 35.4073 330.716 35.4073C329.806 35.4073 329.026 35.3033 328.376 35.0953C327.726 34.8873 327.193 34.6013 326.777 34.2373C326.361 33.8473 326.049 33.4053 325.841 32.9113C325.659 32.4173 325.568 31.8973 325.568 31.3513C325.568 30.4673 325.802 29.6873 326.27 29.0113C326.764 28.3353 327.466 27.7373 328.376 27.2173C329.286 26.6973 330.391 26.2293 331.691 25.8133C333.017 25.3713 334.525 24.9423 336.215 24.5263C336.163 23.5123 335.955 22.6933 335.591 22.0693C335.227 21.4453 334.798 20.9643 334.304 20.6263C333.81 20.2623 333.29 20.0283 332.744 19.9243C332.198 19.7943 331.73 19.7293 331.34 19.7293C330.664 19.7293 330.066 19.8333 329.546 20.0413C329.052 20.2493 328.61 20.5223 328.22 20.8603C327.856 21.1723 327.544 21.5233 327.284 21.9133C327.024 22.2773 326.816 22.6283 326.66 22.9663H326.309V20.1193C326.517 20.0933 326.712 20.0283 326.894 19.9243C327.076 19.8203 327.297 19.7163 327.557 19.6123C327.947 19.4563 328.48 19.2353 329.156 18.9493C329.832 18.6373 330.781 18.4813 332.003 18.4813C333.433 18.4813 334.59 18.6633 335.474 19.0273C336.358 19.3913 337.034 19.8723 337.502 20.4703C337.996 21.0683 338.321 21.7573 338.477 22.5373C338.633 23.2913 338.711 24.0713 338.711 24.8773V32.5993C338.711 33.1193 338.828 33.6133 339.062 34.0813C339.296 34.5233 339.608 34.7443 339.998 34.7443V35.1343H336.215ZM336.215 31.4293V25.8523L335.825 25.9303C335.201 26.0863 334.434 26.2943 333.524 26.5543C332.64 26.8143 331.795 27.1523 330.989 27.5683C330.183 27.9843 329.494 28.4783 328.922 29.0503C328.35 29.6223 328.064 30.2853 328.064 31.0393C328.064 31.8713 328.402 32.5603 329.078 33.1063C329.754 33.6523 330.638 33.9253 331.73 33.9253C332.588 33.9253 333.342 33.7433 333.992 33.3793C334.642 32.9893 335.24 32.4953 335.786 31.8973L336.215 31.4293ZM347.85 40.7113C347.486 41.8033 347.018 42.5443 346.446 42.9343C345.9 43.3243 345.328 43.5193 344.73 43.5193C344.34 43.5193 343.989 43.4673 343.677 43.3633C343.391 43.2593 343.131 43.1293 342.897 42.9733C342.689 42.8433 342.52 42.7133 342.39 42.5833C342.26 42.4533 342.182 42.3493 342.156 42.2713L343.443 39.1123C343.573 39.5803 343.703 39.9313 343.833 40.1653C343.963 40.4253 344.145 40.6593 344.379 40.8673C344.613 41.0753 344.899 41.1793 345.237 41.1793C345.861 41.1793 346.355 40.7243 346.719 39.8143L348.63 35.0173L342.351 20.8213C342.221 20.5093 342 20.1583 341.688 19.7683C341.402 19.3523 340.999 19.1443 340.479 19.1443V18.7543H345.627V19.1443C345.523 19.1443 345.393 19.2353 345.237 19.4173C345.081 19.5993 345.003 19.8333 345.003 20.1193C345.003 20.3533 345.055 20.5613 345.159 20.7433L349.956 31.7803L354.558 20.5093C354.636 20.3273 354.675 20.1583 354.675 20.0023C354.675 19.7423 354.584 19.5343 354.402 19.3783C354.246 19.2223 354.077 19.1443 353.895 19.1443V18.7543H357.678V19.1443C357.262 19.1443 356.898 19.3263 356.586 19.6903C356.3 20.0283 356.066 20.4183 355.884 20.8603L347.85 40.7113ZM370.378 35.1343V33.1453L370.183 33.3403C369.533 33.9903 368.779 34.4973 367.921 34.8613C367.089 35.2253 366.075 35.4073 364.879 35.4073C363.969 35.4073 363.189 35.3033 362.539 35.0953C361.889 34.8873 361.356 34.6013 360.94 34.2373C360.524 33.8473 360.212 33.4053 360.004 32.9113C359.822 32.4173 359.731 31.8973 359.731 31.3513C359.731 30.4673 359.965 29.6873 360.433 29.0113C360.927 28.3353 361.629 27.7373 362.539 27.2173C363.449 26.6973 364.554 26.2293 365.854 25.8133C367.18 25.3713 368.688 24.9423 370.378 24.5263C370.326 23.5123 370.118 22.6933 369.754 22.0693C369.39 21.4453 368.961 20.9643 368.467 20.6263C367.973 20.2623 367.453 20.0283 366.907 19.9243C366.361 19.7943 365.893 19.7293 365.503 19.7293C364.827 19.7293 364.229 19.8333 363.709 20.0413C363.215 20.2493 362.773 20.5223 362.383 20.8603C362.019 21.1723 361.707 21.5233 361.447 21.9133C361.187 22.2773 360.979 22.6283 360.823 22.9663H360.472V20.1193C360.68 20.0933 360.875 20.0283 361.057 19.9243C361.239 19.8203 361.46 19.7163 361.72 19.6123C362.11 19.4563 362.643 19.2353 363.319 18.9493C363.995 18.6373 364.944 18.4813 366.166 18.4813C367.596 18.4813 368.753 18.6633 369.637 19.0273C370.521 19.3913 371.197 19.8723 371.665 20.4703C372.159 21.0683 372.484 21.7573 372.64 22.5373C372.796 23.2913 372.874 24.0713 372.874 24.8773V32.5993C372.874 33.1193 372.991 33.6133 373.225 34.0813C373.459 34.5233 373.771 34.7443 374.161 34.7443V35.1343H370.378ZM370.378 31.4293V25.8523L369.988 25.9303C369.364 26.0863 368.597 26.2943 367.687 26.5543C366.803 26.8143 365.958 27.1523 365.152 27.5683C364.346 27.9843 363.657 28.4783 363.085 29.0503C362.513 29.6223 362.227 30.2853 362.227 31.0393C362.227 31.8713 362.565 32.5603 363.241 33.1063C363.917 33.6523 364.801 33.9253 365.893 33.9253C366.751 33.9253 367.505 33.7433 368.155 33.3793C368.805 32.9893 369.403 32.4953 369.949 31.8973L370.378 31.4293ZM393.584 32.5993C393.584 32.8073 393.61 33.0413 393.662 33.3013C393.714 33.5353 393.792 33.7563 393.896 33.9643C394.026 34.1723 394.156 34.3543 394.286 34.5103C394.442 34.6663 394.624 34.7443 394.832 34.7443V35.1343H389.801V34.7443C389.983 34.7443 390.152 34.6663 390.308 34.5103C390.464 34.3543 390.594 34.1723 390.698 33.9643C390.828 33.7563 390.919 33.5353 390.971 33.3013C391.023 33.0413 391.049 32.8073 391.049 32.5993V25.3453C391.049 24.4093 390.919 23.5903 390.659 22.8883C390.399 22.1863 390.048 21.6013 389.606 21.1333C389.164 20.6653 388.657 20.3273 388.085 20.1193C387.539 19.8853 386.98 19.7683 386.408 19.7683C385.836 19.7683 385.264 19.8853 384.692 20.1193C384.146 20.3533 383.652 20.6653 383.21 21.0553C382.794 21.4193 382.443 21.8613 382.157 22.3813C381.897 22.8753 381.767 23.3953 381.767 23.9413V32.5993C381.767 32.8073 381.793 33.0413 381.845 33.3013C381.897 33.5353 381.975 33.7563 382.079 33.9643C382.209 34.1723 382.339 34.3543 382.469 34.5103C382.625 34.6663 382.807 34.7443 383.015 34.7443V35.1343H377.945V34.7443C378.127 34.7443 378.296 34.6663 378.452 34.5103C378.608 34.3543 378.738 34.1723 378.842 33.9643C378.972 33.7563 379.063 33.5353 379.115 33.3013C379.167 33.0413 379.193 32.8073 379.193 32.5993V21.8353C379.193 21.3933 379.128 20.9773 378.998 20.5873C378.868 20.1713 378.491 19.9503 377.867 19.9243V19.5733L381.767 18.3253V20.4703C381.949 20.2623 382.183 20.0413 382.469 19.8073C382.755 19.5473 383.093 19.3133 383.483 19.1053C383.899 18.8713 384.367 18.6893 384.887 18.5593C385.433 18.4033 386.07 18.3253 386.798 18.3253C388.02 18.3253 389.06 18.5333 389.918 18.9493C390.776 19.3653 391.478 19.9113 392.024 20.5873C392.57 21.2373 392.96 21.9653 393.194 22.7713C393.454 23.5513 393.584 24.3183 393.584 25.0723V32.5993ZM402.485 20.0803V29.4793C402.485 30.1553 402.498 30.7663 402.524 31.3123C402.55 31.8583 402.615 32.3133 402.719 32.6773C402.823 33.0413 402.979 33.3273 403.187 33.5353C403.395 33.7173 403.681 33.8083 404.045 33.8083C404.591 33.8083 405.098 33.5483 405.566 33.0283C406.06 32.5083 406.372 31.8843 406.502 31.1563H406.853V34.0033C406.619 34.0033 406.424 34.0813 406.268 34.2373C406.06 34.4193 405.761 34.6143 405.371 34.8223C405.007 35.0303 404.448 35.1343 403.694 35.1343C402.758 35.1343 402.03 34.9523 401.51 34.5883C400.99 34.2243 400.613 33.7433 400.379 33.1453C400.145 32.5473 400.002 31.8843 399.95 31.1563C399.924 30.4283 399.911 29.6873 399.911 28.9333V20.0803H397.727V18.7543H399.911V15.2833C399.911 14.8413 399.846 14.4383 399.716 14.0743C399.612 13.6843 399.235 13.4763 398.585 13.4503V13.0603L402.485 11.8123V18.7543H406.853V20.0803H402.485ZM417.974 35.4073C416.674 35.4073 415.504 35.1993 414.464 34.7833C413.424 34.3413 412.527 33.7563 411.773 33.0283C411.045 32.2743 410.473 31.3903 410.057 30.3763C409.667 29.3623 409.472 28.2573 409.472 27.0613C409.472 25.7873 409.693 24.6303 410.135 23.5903C410.577 22.5243 411.188 21.6143 411.968 20.8603C412.748 20.1063 413.671 19.5213 414.737 19.1053C415.803 18.6893 416.96 18.4813 418.208 18.4813C419.456 18.4813 420.6 18.6893 421.64 19.1053C422.68 19.4953 423.577 20.0543 424.331 20.7823C425.085 21.5103 425.67 22.3813 426.086 23.3953C426.502 24.3833 426.71 25.4753 426.71 26.6713C426.71 27.7893 426.515 28.8813 426.125 29.9473C425.761 30.9873 425.202 31.9103 424.448 32.7163C423.72 33.5223 422.81 34.1723 421.718 34.6663C420.652 35.1603 419.404 35.4073 417.974 35.4073ZM417.74 19.7683C416.804 19.8203 415.972 20.0543 415.244 20.4703C414.542 20.8603 413.944 21.3803 413.45 22.0303C412.982 22.6543 412.618 23.3693 412.358 24.1753C412.124 24.9813 412.007 25.8003 412.007 26.6323C412.007 27.5943 412.15 28.5303 412.436 29.4403C412.748 30.3243 413.177 31.1173 413.723 31.8193C414.295 32.5213 414.971 33.0803 415.751 33.4963C416.531 33.9123 417.402 34.1203 418.364 34.1203C419.326 34.1203 420.171 33.9123 420.899 33.4963C421.653 33.0803 422.277 32.5473 422.771 31.8973C423.265 31.2213 423.629 30.4673 423.863 29.6353C424.123 28.8033 424.253 27.9713 424.253 27.1393C424.253 26.2813 424.123 25.4233 423.863 24.5653C423.603 23.6813 423.2 22.8883 422.654 22.1863C422.108 21.4583 421.419 20.8733 420.587 20.4313C419.781 19.9893 418.832 19.7683 417.74 19.7683Z" fill="#181818"/>
</svg>
