<svg width="507" height="49" viewBox="0 0 507 49" fill="none" xmlns="http://www.w3.org/2000/svg">
<path d="M19.44 5.5H16.56V20.0236L6.29025 9.75382L4.25378 11.7903L14.5235 22.06H0V24.94H14.5235L4.25382 35.2097L6.29029 37.2462L16.56 26.9765V41.5H19.44V26.9765L29.7096 37.2461L31.7461 35.2097L21.4764 24.94H36V22.06H21.4765L31.7461 11.7903L29.7097 9.75386L19.44 20.0235V5.5Z" fill="#E94B26"/>
<path d="M85.155 37.819C83.829 37.819 82.711 37.65 81.801 37.312C80.891 37 80.111 36.584 79.461 36.064C78.837 35.518 78.278 34.907 77.784 34.231C77.212 33.477 76.653 32.723 76.107 31.969C75.587 31.215 75.067 30.396 74.547 29.512C74.027 28.628 73.481 27.614 72.909 26.47C72.649 25.898 72.298 25.495 71.856 25.261C71.622 25.105 71.388 25.001 71.154 24.949C70.92 24.897 70.712 24.871 70.53 24.871C70.4 24.871 70.296 24.949 70.218 25.105C70.14 25.235 70.101 25.417 70.101 25.651V33.1C70.101 33.906 70.322 34.491 70.764 34.855C71.206 35.219 71.973 35.518 73.065 35.752C73.351 35.804 73.559 35.895 73.689 36.025C73.845 36.129 73.923 36.298 73.923 36.532C73.923 36.714 73.858 36.857 73.728 36.961C73.598 37.065 73.416 37.117 73.182 37.117C72.61 37.117 71.947 37.091 71.193 37.039C70.465 37.013 69.737 36.987 69.009 36.961C68.281 36.935 67.657 36.922 67.137 36.922C66.591 36.922 65.993 36.935 65.343 36.961C64.693 36.987 64.017 37.013 63.315 37.039C62.639 37.091 62.015 37.117 61.443 37.117C61.235 37.117 61.053 37.078 60.897 37C60.741 36.896 60.663 36.753 60.663 36.571C60.663 36.155 60.936 35.882 61.482 35.752C62.47 35.544 63.146 35.284 63.51 34.972C63.9 34.634 64.095 34.036 64.095 33.178V15.667C64.095 15.043 64.03 14.549 63.9 14.185C63.796 13.821 63.575 13.548 63.237 13.366C62.899 13.158 62.405 12.989 61.755 12.859C61.417 12.781 61.183 12.677 61.053 12.547C60.923 12.391 60.858 12.222 60.858 12.04C60.858 11.884 60.936 11.754 61.092 11.65C61.248 11.52 61.456 11.455 61.716 11.455C62.548 11.455 63.224 11.481 63.744 11.533C64.29 11.585 64.797 11.637 65.265 11.689C65.759 11.715 66.331 11.728 66.981 11.728C67.579 11.728 68.099 11.702 68.541 11.65C69.009 11.572 69.529 11.507 70.101 11.455C70.699 11.403 71.453 11.377 72.363 11.377C75.405 11.377 77.745 11.897 79.383 12.937C81.021 13.977 81.84 15.55 81.84 17.656C81.84 18.826 81.58 19.814 81.06 20.62C80.566 21.4 79.929 22.05 79.149 22.57C78.395 23.064 77.628 23.441 76.848 23.701C76.744 23.727 76.692 23.792 76.692 23.896C76.718 23.974 76.757 24.065 76.809 24.169C77.589 25.313 78.343 26.431 79.071 27.523C79.825 28.589 80.592 29.59 81.372 30.526C82.152 31.436 82.958 32.281 83.79 33.061C84.674 33.893 85.571 34.387 86.481 34.543C87.417 34.673 88.34 34.738 89.25 34.738C89.64 34.738 89.835 34.972 89.835 35.44C89.835 36.012 89.627 36.48 89.211 36.844C88.821 37.182 88.275 37.429 87.573 37.585C86.871 37.741 86.065 37.819 85.155 37.819ZM71.583 23.623C72.571 23.623 73.39 23.402 74.04 22.96C74.69 22.518 75.184 21.92 75.522 21.166C75.86 20.386 76.029 19.502 76.029 18.514C76.029 17.318 75.873 16.317 75.561 15.511C75.249 14.705 74.781 14.107 74.157 13.717C73.533 13.301 72.727 13.093 71.739 13.093C71.167 13.093 70.751 13.327 70.491 13.795C70.257 14.237 70.14 15.199 70.14 16.681C70.114 17.279 70.101 18.033 70.101 18.943C70.101 19.853 70.101 20.932 70.101 22.18C70.101 22.7 70.231 23.077 70.491 23.311C70.777 23.519 71.141 23.623 71.583 23.623ZM91.0739 37.117C90.9179 37.117 90.7749 37.078 90.6449 37C90.5149 36.896 90.4499 36.766 90.4499 36.61C90.4499 36.402 90.5149 36.233 90.6449 36.103C90.7749 35.973 90.9439 35.882 91.1519 35.83C91.8279 35.674 92.2959 35.505 92.5559 35.323C92.8419 35.115 92.9849 34.803 92.9849 34.387V25.963C92.9849 25.079 92.8419 24.455 92.5559 24.091C92.2959 23.701 91.8799 23.467 91.3079 23.389C91.1519 23.363 91.0349 23.285 90.9569 23.155C90.8789 23.025 90.8399 22.869 90.8399 22.687C90.8399 22.297 90.9829 22.076 91.2689 22.024C92.6209 21.764 93.8169 21.4 94.8569 20.932C95.9229 20.464 96.7419 20.1 97.3139 19.84C97.7299 19.632 97.9899 19.528 98.0939 19.528C98.4319 19.528 98.6009 19.684 98.6009 19.996C98.5749 20.438 98.5099 20.997 98.4059 21.673C98.3279 22.323 98.2499 22.999 98.1719 23.701C98.1199 24.403 98.0939 25.079 98.0939 25.729V34.348C98.0939 34.712 98.2239 34.998 98.4839 35.206C98.7699 35.414 99.2639 35.622 99.9659 35.83C100.174 35.908 100.343 35.999 100.473 36.103C100.603 36.207 100.668 36.363 100.668 36.571C100.668 36.909 100.473 37.078 100.083 37.078C99.5889 37.078 99.0689 37.065 98.5229 37.039C97.9769 37.013 97.4439 36.987 96.9239 36.961C96.4299 36.935 95.9489 36.922 95.4809 36.922C95.0389 36.922 94.5709 36.935 94.0769 36.961C93.6089 36.987 93.1149 37.013 92.5949 37.039C92.1009 37.091 91.5939 37.117 91.0739 37.117ZM95.3639 17.773C94.5579 17.773 93.8429 17.474 93.2189 16.876C92.6209 16.278 92.3219 15.563 92.3219 14.731C92.3219 13.847 92.6209 13.106 93.2189 12.508C93.8429 11.91 94.5579 11.611 95.3639 11.611C96.2739 11.611 97.0279 11.91 97.6259 12.508C98.2239 13.106 98.5229 13.847 98.5229 14.731C98.5229 15.563 98.2239 16.278 97.6259 16.876C97.0279 17.474 96.2739 17.773 95.3639 17.773ZM110.493 37.819C110.337 37.819 110.168 37.65 109.986 37.312C109.83 36.974 109.648 36.571 109.44 36.103C109.232 35.635 109.011 35.115 108.777 34.543C108.543 33.945 108.322 33.412 108.114 32.944C107.464 31.41 106.788 29.915 106.086 28.459C105.384 27.003 104.695 25.521 104.019 24.013C103.785 23.441 103.512 22.96 103.2 22.57C102.888 22.154 102.498 21.868 102.03 21.712C101.77 21.608 101.588 21.504 101.484 21.4C101.38 21.27 101.328 21.101 101.328 20.893C101.328 20.685 101.432 20.555 101.64 20.503C101.874 20.451 102.082 20.425 102.264 20.425C102.888 20.425 103.369 20.451 103.707 20.503C104.071 20.529 104.422 20.568 104.76 20.62C105.098 20.646 105.553 20.659 106.125 20.659C106.671 20.659 107.152 20.646 107.568 20.62C108.01 20.568 108.452 20.529 108.894 20.503C109.362 20.451 109.895 20.425 110.493 20.425C110.675 20.425 110.87 20.464 111.078 20.542C111.312 20.62 111.429 20.75 111.429 20.932C111.429 21.166 111.338 21.322 111.156 21.4C110.974 21.478 110.766 21.569 110.532 21.673C110.272 21.777 110.051 21.972 109.869 22.258C109.713 22.544 109.635 22.908 109.635 23.35C109.635 23.584 109.635 23.805 109.635 24.013C109.635 24.195 109.687 24.39 109.791 24.598L112.404 31.033C112.43 31.033 112.443 31.033 112.443 31.033C112.469 31.033 112.495 31.033 112.521 31.033L114.822 24.871C114.926 24.637 114.991 24.416 115.017 24.208C115.043 24 115.056 23.805 115.056 23.623C115.056 23.155 114.952 22.765 114.744 22.453C114.562 22.115 114.25 21.868 113.808 21.712C113.574 21.634 113.366 21.556 113.184 21.478C113.028 21.374 112.95 21.205 112.95 20.971C112.95 20.789 113.054 20.659 113.262 20.581C113.47 20.503 113.665 20.464 113.847 20.464C114.549 20.49 115.069 20.516 115.407 20.542C115.771 20.568 116.148 20.581 116.538 20.581C116.928 20.581 117.305 20.568 117.669 20.542C118.033 20.516 118.553 20.49 119.229 20.464C119.411 20.464 119.606 20.49 119.814 20.542C120.048 20.594 120.165 20.724 120.165 20.932C120.165 21.296 119.918 21.569 119.424 21.751C118.956 21.907 118.514 22.206 118.098 22.648C117.708 23.064 117.383 23.571 117.123 24.169L114.081 31.813C114.029 31.995 113.938 32.216 113.808 32.476C113.704 32.736 113.587 33.009 113.457 33.295C113.353 33.555 113.249 33.802 113.145 34.036C113.041 34.27 112.937 34.478 112.833 34.66C112.755 34.842 112.625 35.141 112.443 35.557C112.261 35.973 112.079 36.389 111.897 36.805C111.715 37.221 111.546 37.559 111.39 37.819H110.493ZM124.14 37.546C123.438 37.546 122.788 37.377 122.19 37.039C121.592 36.701 121.111 36.259 120.747 35.713C120.409 35.167 120.24 34.569 120.24 33.919C120.24 33.035 120.513 32.294 121.059 31.696C121.631 31.098 122.463 30.565 123.555 30.097L127.026 28.576C127.546 28.342 127.858 28.134 127.962 27.952C128.092 27.77 128.157 27.432 128.157 26.938L128.196 24.715C128.222 23.987 128.092 23.415 127.806 22.999C127.52 22.557 127.091 22.336 126.519 22.336C126.181 22.336 125.843 22.414 125.505 22.57C125.167 22.7 124.907 22.856 124.725 23.038C124.647 23.142 124.582 23.272 124.53 23.428C124.504 23.558 124.491 23.701 124.491 23.857C124.491 24.013 124.504 24.208 124.53 24.442C124.556 24.65 124.569 24.832 124.569 24.988C124.569 25.144 124.361 25.352 123.945 25.612C123.529 25.846 123.048 26.067 122.502 26.275C121.956 26.457 121.488 26.548 121.098 26.548C120.916 26.548 120.747 26.47 120.591 26.314C120.461 26.158 120.396 25.963 120.396 25.729C120.396 25.313 120.539 24.91 120.825 24.52C121.111 24.104 121.579 23.636 122.229 23.116C122.905 22.544 123.646 22.037 124.452 21.595C125.258 21.153 126.051 20.802 126.831 20.542C127.637 20.282 128.313 20.152 128.859 20.152C130.263 20.152 131.381 20.607 132.213 21.517C133.045 22.401 133.435 23.584 133.383 25.066L133.188 32.944C133.162 33.542 133.266 34.049 133.5 34.465C133.734 34.881 134.02 35.089 134.358 35.089C134.852 35.089 135.281 34.92 135.645 34.582C135.723 34.504 135.801 34.465 135.879 34.465C136.009 34.465 136.113 34.504 136.191 34.582C136.295 34.66 136.347 34.764 136.347 34.894C136.347 35.206 136.113 35.609 135.645 36.103C135.151 36.571 134.631 36.922 134.085 37.156C133.539 37.416 132.967 37.546 132.369 37.546C130.913 37.546 129.704 36.805 128.742 35.323H128.664C127.806 36.103 127.026 36.662 126.324 37C125.648 37.364 124.92 37.546 124.14 37.546ZM126.48 35.011C126.766 35.011 127 34.972 127.182 34.894C127.364 34.79 127.546 34.634 127.728 34.426C127.806 34.322 127.871 34.192 127.923 34.036C127.975 33.854 128.001 33.646 128.001 33.412L128.118 30.604C128.118 30.344 128.079 30.175 128.001 30.097C127.923 30.019 127.832 29.98 127.728 29.98C127.676 29.98 127.611 29.993 127.533 30.019C127.455 30.045 127.364 30.084 127.26 30.136C126.506 30.5 125.947 30.877 125.583 31.267C125.219 31.631 125.037 32.229 125.037 33.061C125.037 33.815 125.193 34.335 125.505 34.621C125.817 34.881 126.142 35.011 126.48 35.011ZM137.809 37.117C137.627 37.117 137.445 37.078 137.263 37C137.107 36.896 137.029 36.753 137.029 36.571C137.029 36.363 137.12 36.207 137.302 36.103C137.484 35.973 137.692 35.869 137.926 35.791C138.316 35.661 138.654 35.518 138.94 35.362C139.252 35.18 139.408 34.829 139.408 34.309V25.378C139.408 24.806 139.317 24.325 139.135 23.935C138.979 23.545 138.667 23.298 138.199 23.194C138.095 23.168 137.991 23.103 137.887 22.999C137.809 22.895 137.77 22.726 137.77 22.492C137.77 22.128 137.9 21.907 138.16 21.829C139.044 21.621 140.006 21.348 141.046 21.01C142.112 20.646 143.022 20.269 143.776 19.879C143.88 19.827 143.997 19.762 144.127 19.684C144.257 19.606 144.374 19.567 144.478 19.567C144.634 19.567 144.725 19.619 144.751 19.723C144.803 19.801 144.829 19.905 144.829 20.035C144.829 20.243 144.79 20.581 144.712 21.049C144.66 21.491 144.634 21.894 144.634 22.258C144.634 22.362 144.634 22.479 144.634 22.609C144.66 22.739 144.686 22.817 144.712 22.843C145.596 21.985 146.493 21.322 147.403 20.854C148.313 20.386 149.366 20.152 150.562 20.152C151.914 20.152 153.045 20.659 153.955 21.673C154.891 22.661 155.359 24.013 155.359 25.729V34.309C155.359 34.829 155.502 35.18 155.788 35.362C156.1 35.518 156.451 35.661 156.841 35.791C157.049 35.869 157.231 35.973 157.387 36.103C157.543 36.207 157.621 36.363 157.621 36.571C157.621 36.753 157.543 36.896 157.387 37C157.257 37.078 157.114 37.117 156.958 37.117C156.438 37.117 155.944 37.091 155.476 37.039C155.034 37.013 154.592 36.987 154.15 36.961C153.734 36.935 153.292 36.922 152.824 36.922C152.382 36.922 151.94 36.935 151.498 36.961C151.056 36.987 150.614 37.013 150.172 37.039C149.73 37.091 149.249 37.117 148.729 37.117C148.573 37.117 148.417 37.078 148.261 37C148.131 36.896 148.066 36.753 148.066 36.571C148.066 36.363 148.144 36.207 148.3 36.103C148.456 35.973 148.638 35.869 148.846 35.791C149.236 35.661 149.561 35.518 149.821 35.362C150.081 35.18 150.211 34.829 150.211 34.309V26.548C150.211 25.56 149.977 24.793 149.509 24.247C149.067 23.675 148.469 23.376 147.715 23.35C147.143 23.35 146.636 23.441 146.194 23.623C145.752 23.805 145.297 24.052 144.829 24.364C144.725 24.468 144.647 24.585 144.595 24.715C144.543 24.845 144.517 24.975 144.517 25.105V34.309C144.517 34.829 144.66 35.18 144.946 35.362C145.232 35.518 145.557 35.661 145.921 35.791C146.441 35.947 146.701 36.207 146.701 36.571C146.701 36.727 146.636 36.857 146.506 36.961C146.376 37.065 146.22 37.117 146.038 37.117C145.518 37.117 145.037 37.091 144.595 37.039C144.153 37.013 143.737 36.987 143.347 36.961C142.957 36.935 142.528 36.922 142.06 36.922C141.618 36.922 141.163 36.935 140.695 36.961C140.253 36.987 139.785 37.013 139.291 37.039C138.823 37.091 138.329 37.117 137.809 37.117ZM172.262 37.741C172.184 37.741 172.067 37.65 171.911 37.468C171.781 37.312 171.716 37.182 171.716 37.078C171.768 36.688 171.807 36.324 171.833 35.986C171.885 35.622 171.911 35.297 171.911 35.011V34.777C171.391 35.583 170.663 36.246 169.727 36.766C168.817 37.286 167.829 37.546 166.763 37.546C165.307 37.546 164.007 37.182 162.863 36.454C161.745 35.726 160.861 34.738 160.211 33.49C159.561 32.242 159.236 30.877 159.236 29.395C159.236 27.627 159.626 26.054 160.406 24.676C161.186 23.298 162.278 22.219 163.682 21.439C165.086 20.633 166.711 20.23 168.557 20.23C168.947 20.23 169.35 20.269 169.766 20.347C170.208 20.399 170.611 20.477 170.975 20.581C171.339 20.659 171.508 20.698 171.482 20.698C171.586 20.698 171.638 20.529 171.638 20.191V15.55C171.638 14.614 171.521 13.938 171.287 13.522C171.053 13.106 170.663 12.846 170.117 12.742C169.805 12.664 169.649 12.469 169.649 12.157C169.649 11.819 169.792 11.624 170.078 11.572C171.04 11.364 172.028 11.104 173.042 10.792C174.082 10.454 174.927 10.142 175.577 9.856C175.915 9.7 176.149 9.609 176.279 9.583C176.409 9.531 176.487 9.505 176.513 9.505C176.799 9.505 176.942 9.661 176.942 9.973C176.942 9.895 176.929 9.999 176.903 10.285C176.877 10.545 176.851 10.896 176.825 11.338C176.799 11.78 176.773 12.222 176.747 12.664L176.552 32.32C176.552 33.204 176.617 33.841 176.747 34.231C176.877 34.621 177.111 34.816 177.449 34.816C177.579 34.816 177.709 34.803 177.839 34.777C177.995 34.751 178.372 34.725 178.97 34.699C179.334 34.673 179.516 34.803 179.516 35.089C179.516 35.297 179.438 35.518 179.282 35.752C179.126 35.986 178.983 36.103 178.853 36.103C177.917 36.207 176.929 36.376 175.889 36.61C174.875 36.844 173.887 37.143 172.925 37.507C172.769 37.585 172.639 37.637 172.535 37.663C172.431 37.715 172.34 37.741 172.262 37.741ZM168.752 34.894C169.142 34.894 169.623 34.79 170.195 34.582C170.793 34.374 171.274 34.075 171.638 33.685L171.599 25.066C171.599 24.598 171.417 24.143 171.053 23.701C170.715 23.233 170.273 22.843 169.727 22.531C169.207 22.219 168.687 22.063 168.167 22.063C167.543 22.063 166.958 22.323 166.412 22.843C165.892 23.337 165.463 24.052 165.125 24.988C164.813 25.898 164.657 27.016 164.657 28.342C164.657 29.408 164.761 30.344 164.969 31.15C165.203 31.956 165.515 32.645 165.905 33.217C166.295 33.763 166.737 34.179 167.231 34.465C167.725 34.751 168.232 34.894 168.752 34.894ZM181.299 37.117C181.143 37.117 181 37.078 180.87 37C180.74 36.896 180.675 36.766 180.675 36.61C180.675 36.402 180.74 36.233 180.87 36.103C181 35.973 181.169 35.882 181.377 35.83C182.053 35.674 182.521 35.505 182.781 35.323C183.067 35.115 183.21 34.803 183.21 34.387V25.963C183.21 25.079 183.067 24.455 182.781 24.091C182.521 23.701 182.105 23.467 181.533 23.389C181.377 23.363 181.26 23.285 181.182 23.155C181.104 23.025 181.065 22.869 181.065 22.687C181.065 22.297 181.208 22.076 181.494 22.024C182.846 21.764 184.042 21.4 185.082 20.932C186.148 20.464 186.967 20.1 187.539 19.84C187.955 19.632 188.215 19.528 188.319 19.528C188.657 19.528 188.826 19.684 188.826 19.996C188.8 20.438 188.735 20.997 188.631 21.673C188.553 22.323 188.475 22.999 188.397 23.701C188.345 24.403 188.319 25.079 188.319 25.729V34.348C188.319 34.712 188.449 34.998 188.709 35.206C188.995 35.414 189.489 35.622 190.191 35.83C190.399 35.908 190.568 35.999 190.698 36.103C190.828 36.207 190.893 36.363 190.893 36.571C190.893 36.909 190.698 37.078 190.308 37.078C189.814 37.078 189.294 37.065 188.748 37.039C188.202 37.013 187.669 36.987 187.149 36.961C186.655 36.935 186.174 36.922 185.706 36.922C185.264 36.922 184.796 36.935 184.302 36.961C183.834 36.987 183.34 37.013 182.82 37.039C182.326 37.091 181.819 37.117 181.299 37.117ZM185.589 17.773C184.783 17.773 184.068 17.474 183.444 16.876C182.846 16.278 182.547 15.563 182.547 14.731C182.547 13.847 182.846 13.106 183.444 12.508C184.068 11.91 184.783 11.611 185.589 11.611C186.499 11.611 187.253 11.91 187.851 12.508C188.449 13.106 188.748 13.847 188.748 14.731C188.748 15.563 188.449 16.278 187.851 16.876C187.253 17.474 186.499 17.773 185.589 17.773ZM215.511 37.273C214.627 37.273 213.652 37.247 212.586 37.195C211.546 37.143 210.571 37.091 209.661 37.039C208.751 37.013 208.062 37 207.594 37C207.074 37 206.502 37 205.878 37C205.254 37.026 204.604 37.052 203.928 37.078C203.278 37.104 202.654 37.117 202.056 37.117C201.874 37.117 201.705 37.078 201.549 37C201.393 36.896 201.315 36.753 201.315 36.571C201.315 36.337 201.38 36.155 201.51 36.025C201.666 35.895 201.874 35.804 202.134 35.752C203.122 35.544 203.798 35.284 204.162 34.972C204.526 34.634 204.708 34.049 204.708 33.217V15.511C204.708 14.679 204.539 14.094 204.201 13.756C203.863 13.392 203.174 13.093 202.134 12.859C201.874 12.807 201.666 12.716 201.51 12.586C201.38 12.456 201.315 12.274 201.315 12.04C201.315 11.858 201.393 11.715 201.549 11.611C201.705 11.507 201.874 11.455 202.056 11.455C202.654 11.455 203.278 11.468 203.928 11.494C204.604 11.52 205.254 11.559 205.878 11.611C206.528 11.637 207.113 11.65 207.633 11.65C208.049 11.65 208.595 11.637 209.271 11.611C209.947 11.559 210.675 11.52 211.455 11.494C212.261 11.442 213.028 11.403 213.756 11.377C214.51 11.325 215.121 11.299 215.589 11.299C217.565 11.299 219.385 11.611 221.049 12.235C222.739 12.833 224.208 13.704 225.456 14.848C226.73 15.966 227.718 17.292 228.42 18.826C229.122 20.36 229.473 22.05 229.473 23.896C229.473 25.638 229.161 27.315 228.537 28.927C227.913 30.513 227.003 31.943 225.807 33.217C224.611 34.465 223.155 35.453 221.439 36.181C219.723 36.909 217.747 37.273 215.511 37.273ZM214.926 35.284C216.694 35.284 218.176 34.855 219.372 33.997C220.568 33.113 221.452 31.904 222.024 30.37C222.622 28.81 222.921 27.003 222.921 24.949C222.921 23.207 222.726 21.634 222.336 20.23C221.972 18.8 221.426 17.578 220.698 16.564C219.996 15.55 219.112 14.77 218.046 14.224C217.006 13.652 215.823 13.366 214.497 13.366C213.665 13.366 212.963 13.392 212.391 13.444C211.845 13.496 211.429 13.626 211.143 13.834C210.857 14.042 210.714 14.38 210.714 14.848V31.852C210.714 32.71 210.87 33.386 211.182 33.88C211.52 34.374 212.001 34.738 212.625 34.972C213.275 35.18 214.042 35.284 214.926 35.284ZM239.677 38.17C239.547 38.17 239.417 38.144 239.287 38.092C239.183 38.04 239.105 37.936 239.053 37.78L233.398 24.013C233.164 23.415 232.891 22.934 232.579 22.57C232.267 22.18 231.877 21.894 231.409 21.712C231.149 21.608 230.954 21.504 230.824 21.4C230.72 21.27 230.668 21.101 230.668 20.893C230.668 20.685 230.772 20.555 230.98 20.503C231.214 20.451 231.422 20.425 231.604 20.425C232.202 20.425 232.683 20.451 233.047 20.503C233.411 20.529 233.762 20.568 234.1 20.62C234.438 20.646 234.88 20.659 235.426 20.659C235.946 20.659 236.388 20.646 236.752 20.62C237.142 20.568 237.532 20.529 237.922 20.503C238.312 20.451 238.806 20.425 239.404 20.425C239.56 20.425 239.742 20.464 239.95 20.542C240.184 20.62 240.301 20.75 240.301 20.932C240.301 21.166 240.21 21.322 240.028 21.4C239.846 21.478 239.651 21.569 239.443 21.673C239.157 21.777 238.949 21.946 238.819 22.18C238.689 22.414 238.624 22.752 238.624 23.194C238.624 23.662 238.702 24.13 238.858 24.598L241.159 30.682C241.159 30.734 241.185 30.76 241.237 30.76C241.315 30.76 241.354 30.734 241.354 30.682L243.928 24.559C244.006 24.403 244.058 24.234 244.084 24.052C244.136 23.844 244.162 23.636 244.162 23.428C244.162 23.142 244.019 22.843 243.733 22.531C243.447 22.193 243.083 21.933 242.641 21.751C242.381 21.647 242.186 21.543 242.056 21.439C241.952 21.309 241.9 21.14 241.9 20.932C241.9 20.724 242.017 20.594 242.251 20.542C242.485 20.49 242.719 20.464 242.953 20.464C243.577 20.464 244.201 20.49 244.825 20.542C245.449 20.594 245.969 20.62 246.385 20.62C247.061 20.62 247.685 20.594 248.257 20.542C248.855 20.49 249.518 20.464 250.246 20.464C250.428 20.464 250.623 20.503 250.831 20.581C251.065 20.659 251.182 20.789 251.182 20.971C251.182 21.205 251.078 21.361 250.87 21.439C250.688 21.517 250.493 21.608 250.285 21.712C249.999 21.816 249.765 21.959 249.583 22.141C249.401 22.323 249.31 22.609 249.31 22.999C249.31 23.311 249.349 23.61 249.427 23.896C249.505 24.156 249.583 24.39 249.661 24.598L251.962 30.682C251.988 30.76 252.04 30.799 252.118 30.799C252.17 30.799 252.209 30.773 252.235 30.721L254.38 25.105C254.484 24.845 254.562 24.572 254.614 24.286C254.666 24 254.679 23.74 254.653 23.506C254.653 23.09 254.549 22.739 254.341 22.453C254.133 22.141 253.86 21.92 253.522 21.79C253.314 21.712 253.119 21.634 252.937 21.556C252.755 21.452 252.664 21.283 252.664 21.049C252.664 20.841 252.768 20.711 252.976 20.659C253.184 20.581 253.379 20.542 253.561 20.542C254.315 20.568 254.848 20.594 255.16 20.62C255.498 20.62 255.862 20.62 256.252 20.62C256.512 20.62 256.733 20.62 256.915 20.62C257.123 20.62 257.37 20.62 257.656 20.62C257.942 20.594 258.319 20.568 258.787 20.542C258.969 20.542 259.164 20.568 259.372 20.62C259.606 20.672 259.723 20.789 259.723 20.971C259.723 21.205 259.658 21.387 259.528 21.517C259.424 21.621 259.242 21.725 258.982 21.829C258.514 21.985 258.085 22.271 257.695 22.687C257.305 23.103 256.993 23.61 256.759 24.208L251.26 37.78C251.156 38.014 250.935 38.131 250.597 38.131C250.337 38.131 250.142 38.014 250.012 37.78L245.137 26.587C245.111 26.535 245.072 26.509 245.02 26.509C244.968 26.509 244.929 26.548 244.903 26.626L240.34 37.78C240.21 38.04 239.989 38.17 239.677 38.17ZM261.242 37.117C261.086 37.117 260.943 37.078 260.813 37C260.683 36.896 260.618 36.766 260.618 36.61C260.618 36.402 260.683 36.233 260.813 36.103C260.943 35.973 261.112 35.882 261.32 35.83C261.996 35.674 262.464 35.505 262.724 35.323C263.01 35.115 263.153 34.803 263.153 34.387V25.963C263.153 25.079 263.01 24.455 262.724 24.091C262.464 23.701 262.048 23.467 261.476 23.389C261.32 23.363 261.203 23.285 261.125 23.155C261.047 23.025 261.008 22.869 261.008 22.687C261.008 22.297 261.151 22.076 261.437 22.024C262.789 21.764 263.985 21.4 265.025 20.932C266.091 20.464 266.91 20.1 267.482 19.84C267.898 19.632 268.158 19.528 268.262 19.528C268.6 19.528 268.769 19.684 268.769 19.996C268.743 20.438 268.678 20.997 268.574 21.673C268.496 22.323 268.418 22.999 268.34 23.701C268.288 24.403 268.262 25.079 268.262 25.729V34.348C268.262 34.712 268.392 34.998 268.652 35.206C268.938 35.414 269.432 35.622 270.134 35.83C270.342 35.908 270.511 35.999 270.641 36.103C270.771 36.207 270.836 36.363 270.836 36.571C270.836 36.909 270.641 37.078 270.251 37.078C269.757 37.078 269.237 37.065 268.691 37.039C268.145 37.013 267.612 36.987 267.092 36.961C266.598 36.935 266.117 36.922 265.649 36.922C265.207 36.922 264.739 36.935 264.245 36.961C263.777 36.987 263.283 37.013 262.763 37.039C262.269 37.091 261.762 37.117 261.242 37.117ZM265.532 17.773C264.726 17.773 264.011 17.474 263.387 16.876C262.789 16.278 262.49 15.563 262.49 14.731C262.49 13.847 262.789 13.106 263.387 12.508C264.011 11.91 264.726 11.611 265.532 11.611C266.442 11.611 267.196 11.91 267.794 12.508C268.392 13.106 268.691 13.847 268.691 14.731C268.691 15.563 268.392 16.278 267.794 16.876C267.196 17.474 266.442 17.773 265.532 17.773ZM294.986 37.663C294.778 37.663 294.622 37.559 294.518 37.351C294.414 37.143 294.297 36.909 294.167 36.649L284.339 15.394C284.053 14.77 283.728 14.25 283.364 13.834C283 13.392 282.441 13.08 281.687 12.898C281.427 12.794 281.167 12.69 280.907 12.586C280.673 12.482 280.556 12.3 280.556 12.04C280.556 11.858 280.673 11.728 280.907 11.65C281.141 11.546 281.362 11.494 281.57 11.494C282.35 11.494 283.221 11.52 284.183 11.572C285.171 11.624 286.029 11.65 286.757 11.65C287.537 11.65 288.33 11.624 289.136 11.572C289.942 11.52 290.735 11.494 291.515 11.494C291.853 11.494 292.126 11.546 292.334 11.65C292.568 11.728 292.685 11.858 292.685 12.04C292.685 12.274 292.581 12.456 292.373 12.586C292.165 12.69 291.853 12.781 291.437 12.859C291.021 12.963 290.774 13.119 290.696 13.327C290.618 13.535 290.579 13.782 290.579 14.068C290.579 14.224 290.605 14.432 290.657 14.692C290.709 14.952 290.748 15.121 290.774 15.199C291.294 16.421 291.814 17.63 292.334 18.826C292.854 19.996 293.361 21.179 293.855 22.375C294.349 23.545 294.856 24.728 295.376 25.924C295.896 27.094 296.403 28.303 296.897 29.551C297.027 29.837 297.131 29.993 297.209 30.019C297.287 30.045 297.404 29.902 297.56 29.59L299.705 25.534C299.783 25.378 299.835 25.248 299.861 25.144C299.913 25.014 299.939 24.897 299.939 24.793C299.939 24.689 299.913 24.585 299.861 24.481C299.835 24.351 299.796 24.208 299.744 24.052L295.727 15.511C295.467 14.861 295.077 14.315 294.557 13.873C294.037 13.405 293.387 13.08 292.607 12.898C292.347 12.794 292.126 12.69 291.944 12.586C291.788 12.482 291.71 12.3 291.71 12.04C291.71 11.858 291.788 11.728 291.944 11.65C292.1 11.546 292.282 11.494 292.49 11.494C293.01 11.494 293.608 11.507 294.284 11.533C294.96 11.559 295.623 11.585 296.273 11.611C296.949 11.637 297.534 11.65 298.028 11.65C298.782 11.65 299.549 11.624 300.329 11.572C301.135 11.52 301.928 11.494 302.708 11.494C303.098 11.494 303.41 11.546 303.644 11.65C303.878 11.728 303.995 11.858 303.995 12.04C303.995 12.196 303.93 12.339 303.8 12.469C303.67 12.573 303.488 12.664 303.254 12.742C303.046 12.82 302.825 12.911 302.591 13.015C302.123 13.119 301.85 13.301 301.772 13.561C301.72 13.821 301.746 14.107 301.85 14.419C301.954 14.653 302.071 14.991 302.201 15.433C302.357 15.849 302.526 16.304 302.708 16.798C302.916 17.266 303.098 17.721 303.254 18.163C303.436 18.605 303.579 18.956 303.683 19.216C303.865 19.606 303.995 19.762 304.073 19.684C304.177 19.606 304.281 19.45 304.385 19.216C304.567 18.852 304.775 18.384 305.009 17.812C305.243 17.214 305.464 16.629 305.672 16.057C305.88 15.485 306.036 15.056 306.14 14.77C306.27 14.562 306.335 14.315 306.335 14.029C306.335 13.639 306.166 13.366 305.828 13.21C305.516 13.028 305.204 12.872 304.892 12.742C304.58 12.586 304.424 12.365 304.424 12.079C304.424 11.923 304.463 11.793 304.541 11.689C304.645 11.585 304.905 11.533 305.321 11.533C306.023 11.533 306.478 11.559 306.686 11.611C306.92 11.637 307.219 11.65 307.583 11.65C307.999 11.624 308.389 11.585 308.753 11.533C309.117 11.481 309.676 11.455 310.43 11.455C310.742 11.455 311.015 11.507 311.249 11.611C311.483 11.689 311.6 11.845 311.6 12.079C311.6 12.339 311.483 12.521 311.249 12.625C311.041 12.703 310.807 12.781 310.547 12.859C309.741 13.067 309.156 13.379 308.792 13.795C308.428 14.211 308.09 14.718 307.778 15.316C307.518 15.81 307.232 16.369 306.92 16.993C306.608 17.617 306.296 18.254 305.984 18.904C305.698 19.554 305.412 20.165 305.126 20.737C304.996 21.049 304.944 21.374 304.97 21.712C304.996 22.024 305.074 22.349 305.204 22.687L308.207 29.59C308.285 29.824 308.363 29.915 308.441 29.863C308.545 29.785 308.623 29.668 308.675 29.512C309.663 27.302 310.638 25.001 311.6 22.609C312.562 20.217 313.42 18.007 314.174 15.979C314.434 15.329 314.577 14.887 314.603 14.653C314.655 14.393 314.668 14.198 314.642 14.068C314.616 13.782 314.512 13.535 314.33 13.327C314.148 13.119 313.888 12.976 313.55 12.898C313.29 12.82 313.017 12.716 312.731 12.586C312.471 12.456 312.341 12.274 312.341 12.04C312.341 11.858 312.458 11.728 312.692 11.65C312.926 11.572 313.186 11.533 313.472 11.533C314.252 11.533 314.798 11.559 315.11 11.611C315.448 11.637 315.812 11.637 316.202 11.611C316.618 11.585 317.047 11.546 317.489 11.494C317.931 11.442 318.516 11.416 319.244 11.416C319.608 11.416 319.92 11.455 320.18 11.533C320.44 11.611 320.57 11.78 320.57 12.04C320.57 12.274 320.427 12.443 320.141 12.547C319.881 12.625 319.621 12.716 319.361 12.82C318.815 12.95 318.36 13.158 317.996 13.444C317.632 13.73 317.333 14.055 317.099 14.419C316.865 14.757 316.657 15.134 316.475 15.55L307.388 36.844C307.31 37.052 307.206 37.221 307.076 37.351C306.946 37.481 306.79 37.546 306.608 37.546C306.4 37.546 306.218 37.481 306.062 37.351C305.932 37.247 305.802 37.065 305.672 36.805C305.386 36.155 305.035 35.401 304.619 34.543C304.203 33.685 303.722 32.671 303.176 31.501C302.63 30.305 301.993 28.901 301.265 27.289C301.187 27.107 301.096 27.029 300.992 27.055C300.888 27.081 300.797 27.172 300.719 27.328C300.199 28.368 299.666 29.408 299.12 30.448C298.574 31.488 298.028 32.541 297.482 33.607C296.936 34.647 296.39 35.687 295.844 36.727C295.74 36.987 295.623 37.208 295.493 37.39C295.389 37.572 295.22 37.663 294.986 37.663ZM320.694 37.117C320.538 37.117 320.395 37.078 320.265 37C320.135 36.896 320.07 36.766 320.07 36.61C320.07 36.402 320.135 36.233 320.265 36.103C320.395 35.973 320.564 35.882 320.772 35.83C321.448 35.674 321.916 35.505 322.176 35.323C322.462 35.115 322.605 34.803 322.605 34.387V25.963C322.605 25.079 322.462 24.455 322.176 24.091C321.916 23.701 321.5 23.467 320.928 23.389C320.772 23.363 320.655 23.285 320.577 23.155C320.499 23.025 320.46 22.869 320.46 22.687C320.46 22.297 320.603 22.076 320.889 22.024C322.241 21.764 323.437 21.4 324.477 20.932C325.543 20.464 326.362 20.1 326.934 19.84C327.35 19.632 327.61 19.528 327.714 19.528C328.052 19.528 328.221 19.684 328.221 19.996C328.195 20.438 328.13 20.997 328.026 21.673C327.948 22.323 327.87 22.999 327.792 23.701C327.74 24.403 327.714 25.079 327.714 25.729V34.348C327.714 34.712 327.844 34.998 328.104 35.206C328.39 35.414 328.884 35.622 329.586 35.83C329.794 35.908 329.963 35.999 330.093 36.103C330.223 36.207 330.288 36.363 330.288 36.571C330.288 36.909 330.093 37.078 329.703 37.078C329.209 37.078 328.689 37.065 328.143 37.039C327.597 37.013 327.064 36.987 326.544 36.961C326.05 36.935 325.569 36.922 325.101 36.922C324.659 36.922 324.191 36.935 323.697 36.961C323.229 36.987 322.735 37.013 322.215 37.039C321.721 37.091 321.214 37.117 320.694 37.117ZM324.984 17.773C324.178 17.773 323.463 17.474 322.839 16.876C322.241 16.278 321.942 15.563 321.942 14.731C321.942 13.847 322.241 13.106 322.839 12.508C323.463 11.91 324.178 11.611 324.984 11.611C325.894 11.611 326.648 11.91 327.246 12.508C327.844 13.106 328.143 13.847 328.143 14.731C328.143 15.563 327.844 16.278 327.246 16.876C326.648 17.474 325.894 17.773 324.984 17.773ZM344.715 37.741C344.637 37.741 344.52 37.65 344.364 37.468C344.234 37.312 344.169 37.182 344.169 37.078C344.221 36.688 344.26 36.324 344.286 35.986C344.338 35.622 344.364 35.297 344.364 35.011V34.777C343.844 35.583 343.116 36.246 342.18 36.766C341.27 37.286 340.282 37.546 339.216 37.546C337.76 37.546 336.46 37.182 335.316 36.454C334.198 35.726 333.314 34.738 332.664 33.49C332.014 32.242 331.689 30.877 331.689 29.395C331.689 27.627 332.079 26.054 332.859 24.676C333.639 23.298 334.731 22.219 336.135 21.439C337.539 20.633 339.164 20.23 341.01 20.23C341.4 20.23 341.803 20.269 342.219 20.347C342.661 20.399 343.064 20.477 343.428 20.581C343.792 20.659 343.961 20.698 343.935 20.698C344.039 20.698 344.091 20.529 344.091 20.191V15.55C344.091 14.614 343.974 13.938 343.74 13.522C343.506 13.106 343.116 12.846 342.57 12.742C342.258 12.664 342.102 12.469 342.102 12.157C342.102 11.819 342.245 11.624 342.531 11.572C343.493 11.364 344.481 11.104 345.495 10.792C346.535 10.454 347.38 10.142 348.03 9.856C348.368 9.7 348.602 9.609 348.732 9.583C348.862 9.531 348.94 9.505 348.966 9.505C349.252 9.505 349.395 9.661 349.395 9.973C349.395 9.895 349.382 9.999 349.356 10.285C349.33 10.545 349.304 10.896 349.278 11.338C349.252 11.78 349.226 12.222 349.2 12.664L349.005 32.32C349.005 33.204 349.07 33.841 349.2 34.231C349.33 34.621 349.564 34.816 349.902 34.816C350.032 34.816 350.162 34.803 350.292 34.777C350.448 34.751 350.825 34.725 351.423 34.699C351.787 34.673 351.969 34.803 351.969 35.089C351.969 35.297 351.891 35.518 351.735 35.752C351.579 35.986 351.436 36.103 351.306 36.103C350.37 36.207 349.382 36.376 348.342 36.61C347.328 36.844 346.34 37.143 345.378 37.507C345.222 37.585 345.092 37.637 344.988 37.663C344.884 37.715 344.793 37.741 344.715 37.741ZM341.205 34.894C341.595 34.894 342.076 34.79 342.648 34.582C343.246 34.374 343.727 34.075 344.091 33.685L344.052 25.066C344.052 24.598 343.87 24.143 343.506 23.701C343.168 23.233 342.726 22.843 342.18 22.531C341.66 22.219 341.14 22.063 340.62 22.063C339.996 22.063 339.411 22.323 338.865 22.843C338.345 23.337 337.916 24.052 337.578 24.988C337.266 25.898 337.11 27.016 337.11 28.342C337.11 29.408 337.214 30.344 337.422 31.15C337.656 31.956 337.968 32.645 338.358 33.217C338.748 33.763 339.19 34.179 339.684 34.465C340.178 34.751 340.685 34.894 341.205 34.894ZM352.466 48.193C351.972 48.193 351.595 48.141 351.335 48.037C351.049 47.933 350.906 47.777 350.906 47.569C350.906 47.387 350.971 47.231 351.101 47.101C351.231 46.971 351.413 46.854 351.647 46.75C352.063 46.568 352.453 46.321 352.817 46.009C353.181 45.723 353.532 45.242 353.87 44.566C354.13 43.994 354.338 43.292 354.494 42.46C354.65 41.654 354.767 40.783 354.845 39.847C354.949 38.937 355.014 38.053 355.04 37.195C355.066 36.337 355.079 35.596 355.079 34.972V25.963C355.079 25.079 354.936 24.455 354.65 24.091C354.39 23.727 353.961 23.493 353.363 23.389C353.233 23.363 353.129 23.285 353.051 23.155C352.973 23.025 352.934 22.869 352.934 22.687C352.934 22.297 353.077 22.076 353.363 22.024C354.689 21.764 355.885 21.4 356.951 20.932C358.017 20.464 358.823 20.1 359.369 19.84C359.577 19.736 359.746 19.658 359.876 19.606C360.032 19.554 360.136 19.528 360.188 19.528C360.5 19.528 360.656 19.684 360.656 19.996C360.604 20.75 360.513 21.686 360.383 22.804C360.253 23.896 360.188 24.91 360.188 25.846L360.227 33.451C360.227 34.257 360.201 35.206 360.149 36.298C360.097 37.364 359.967 38.469 359.759 39.613C359.551 40.783 359.213 41.888 358.745 42.928C358.381 43.812 357.835 44.657 357.107 45.463C356.405 46.269 355.638 46.919 354.806 47.413C353.974 47.933 353.194 48.193 352.466 48.193ZM357.458 17.773C356.652 17.773 355.937 17.474 355.313 16.876C354.715 16.278 354.416 15.563 354.416 14.731C354.416 13.847 354.715 13.106 355.313 12.508C355.937 11.91 356.652 11.611 357.458 11.611C358.368 11.611 359.122 11.91 359.72 12.508C360.318 13.106 360.617 13.847 360.617 14.731C360.617 15.563 360.318 16.278 359.72 16.876C359.122 17.474 358.368 17.773 357.458 17.773ZM367.7 37.546C366.998 37.546 366.348 37.377 365.75 37.039C365.152 36.701 364.671 36.259 364.307 35.713C363.969 35.167 363.8 34.569 363.8 33.919C363.8 33.035 364.073 32.294 364.619 31.696C365.191 31.098 366.023 30.565 367.115 30.097L370.586 28.576C371.106 28.342 371.418 28.134 371.522 27.952C371.652 27.77 371.717 27.432 371.717 26.938L371.756 24.715C371.782 23.987 371.652 23.415 371.366 22.999C371.08 22.557 370.651 22.336 370.079 22.336C369.741 22.336 369.403 22.414 369.065 22.57C368.727 22.7 368.467 22.856 368.285 23.038C368.207 23.142 368.142 23.272 368.09 23.428C368.064 23.558 368.051 23.701 368.051 23.857C368.051 24.013 368.064 24.208 368.09 24.442C368.116 24.65 368.129 24.832 368.129 24.988C368.129 25.144 367.921 25.352 367.505 25.612C367.089 25.846 366.608 26.067 366.062 26.275C365.516 26.457 365.048 26.548 364.658 26.548C364.476 26.548 364.307 26.47 364.151 26.314C364.021 26.158 363.956 25.963 363.956 25.729C363.956 25.313 364.099 24.91 364.385 24.52C364.671 24.104 365.139 23.636 365.789 23.116C366.465 22.544 367.206 22.037 368.012 21.595C368.818 21.153 369.611 20.802 370.391 20.542C371.197 20.282 371.873 20.152 372.419 20.152C373.823 20.152 374.941 20.607 375.773 21.517C376.605 22.401 376.995 23.584 376.943 25.066L376.748 32.944C376.722 33.542 376.826 34.049 377.06 34.465C377.294 34.881 377.58 35.089 377.918 35.089C378.412 35.089 378.841 34.92 379.205 34.582C379.283 34.504 379.361 34.465 379.439 34.465C379.569 34.465 379.673 34.504 379.751 34.582C379.855 34.66 379.907 34.764 379.907 34.894C379.907 35.206 379.673 35.609 379.205 36.103C378.711 36.571 378.191 36.922 377.645 37.156C377.099 37.416 376.527 37.546 375.929 37.546C374.473 37.546 373.264 36.805 372.302 35.323H372.224C371.366 36.103 370.586 36.662 369.884 37C369.208 37.364 368.48 37.546 367.7 37.546ZM370.04 35.011C370.326 35.011 370.56 34.972 370.742 34.894C370.924 34.79 371.106 34.634 371.288 34.426C371.366 34.322 371.431 34.192 371.483 34.036C371.535 33.854 371.561 33.646 371.561 33.412L371.678 30.604C371.678 30.344 371.639 30.175 371.561 30.097C371.483 30.019 371.392 29.98 371.288 29.98C371.236 29.98 371.171 29.993 371.093 30.019C371.015 30.045 370.924 30.084 370.82 30.136C370.066 30.5 369.507 30.877 369.143 31.267C368.779 31.631 368.597 32.229 368.597 33.061C368.597 33.815 368.753 34.335 369.065 34.621C369.377 34.881 369.702 35.011 370.04 35.011ZM382.056 48.037C381.38 48.037 380.73 47.803 380.106 47.335C379.482 46.867 379.17 46.282 379.17 45.58C379.17 45.086 379.3 44.592 379.56 44.098C379.82 43.63 380.223 43.396 380.769 43.396C381.185 43.396 381.601 43.461 382.017 43.591C382.459 43.747 382.875 43.812 383.265 43.786C383.655 43.734 383.928 43.63 384.084 43.474C384.24 43.344 384.422 43.084 384.63 42.694C384.812 42.382 384.981 42.07 385.137 41.758C385.319 41.472 385.514 41.095 385.722 40.627C385.956 40.185 386.242 39.6 386.58 38.872C386.892 38.17 387.048 37.546 387.048 37C387.048 36.61 386.983 36.259 386.853 35.947C386.749 35.609 386.632 35.284 386.502 34.972L381.705 24.091C381.471 23.493 381.211 22.999 380.925 22.609C380.639 22.219 380.249 21.946 379.755 21.79C379.521 21.686 379.339 21.582 379.209 21.478C379.079 21.348 379.014 21.166 379.014 20.932C379.014 20.75 379.131 20.633 379.365 20.581C379.599 20.529 379.807 20.503 379.989 20.503C380.613 20.503 381.133 20.516 381.549 20.542C381.991 20.568 382.381 20.594 382.719 20.62C383.057 20.646 383.395 20.659 383.733 20.659C384.305 20.659 384.786 20.646 385.176 20.62C385.566 20.594 385.982 20.568 386.424 20.542C386.866 20.516 387.386 20.503 387.984 20.503C388.166 20.503 388.361 20.542 388.569 20.62C388.777 20.698 388.881 20.828 388.881 21.01C388.881 21.244 388.777 21.413 388.569 21.517C388.387 21.595 388.192 21.686 387.984 21.79C387.698 21.894 387.477 22.05 387.321 22.258C387.165 22.466 387.087 22.804 387.087 23.272C387.087 23.48 387.113 23.727 387.165 24.013C387.243 24.299 387.36 24.65 387.516 25.066L389.934 30.955C389.96 31.033 389.999 31.072 390.051 31.072C390.077 31.072 390.116 31.033 390.168 30.955L392.157 24.988C392.235 24.78 392.3 24.533 392.352 24.247C392.43 23.935 392.469 23.662 392.469 23.428C392.469 22.986 392.339 22.635 392.079 22.375C391.819 22.089 391.546 21.894 391.26 21.79C391.052 21.712 390.844 21.621 390.636 21.517C390.454 21.413 390.363 21.244 390.363 21.01C390.363 20.828 390.467 20.698 390.675 20.62C390.883 20.542 391.078 20.503 391.26 20.503C391.962 20.529 392.508 20.568 392.898 20.62C393.288 20.646 393.691 20.659 394.107 20.659C394.367 20.659 394.601 20.659 394.809 20.659C395.043 20.633 395.316 20.607 395.628 20.581C395.94 20.555 396.317 20.529 396.759 20.503C396.941 20.503 397.136 20.529 397.344 20.581C397.578 20.633 397.695 20.75 397.695 20.932C397.695 21.166 397.63 21.348 397.5 21.478C397.396 21.582 397.227 21.686 396.993 21.79C396.499 21.946 396.057 22.245 395.667 22.687C395.277 23.103 394.952 23.61 394.692 24.208L388.881 38.17C388.673 38.69 388.439 39.249 388.179 39.847C387.919 40.471 387.646 41.108 387.36 41.758C387.1 42.408 386.827 43.071 386.541 43.747C386.255 44.423 385.969 45.086 385.683 45.736C385.371 46.49 384.89 47.062 384.24 47.452C383.59 47.842 382.862 48.037 382.056 48.037ZM401.673 37.546C400.971 37.546 400.321 37.377 399.723 37.039C399.125 36.701 398.644 36.259 398.28 35.713C397.942 35.167 397.773 34.569 397.773 33.919C397.773 33.035 398.046 32.294 398.592 31.696C399.164 31.098 399.996 30.565 401.088 30.097L404.559 28.576C405.079 28.342 405.391 28.134 405.495 27.952C405.625 27.77 405.69 27.432 405.69 26.938L405.729 24.715C405.755 23.987 405.625 23.415 405.339 22.999C405.053 22.557 404.624 22.336 404.052 22.336C403.714 22.336 403.376 22.414 403.038 22.57C402.7 22.7 402.44 22.856 402.258 23.038C402.18 23.142 402.115 23.272 402.063 23.428C402.037 23.558 402.024 23.701 402.024 23.857C402.024 24.013 402.037 24.208 402.063 24.442C402.089 24.65 402.102 24.832 402.102 24.988C402.102 25.144 401.894 25.352 401.478 25.612C401.062 25.846 400.581 26.067 400.035 26.275C399.489 26.457 399.021 26.548 398.631 26.548C398.449 26.548 398.28 26.47 398.124 26.314C397.994 26.158 397.929 25.963 397.929 25.729C397.929 25.313 398.072 24.91 398.358 24.52C398.644 24.104 399.112 23.636 399.762 23.116C400.438 22.544 401.179 22.037 401.985 21.595C402.791 21.153 403.584 20.802 404.364 20.542C405.17 20.282 405.846 20.152 406.392 20.152C407.796 20.152 408.914 20.607 409.746 21.517C410.578 22.401 410.968 23.584 410.916 25.066L410.721 32.944C410.695 33.542 410.799 34.049 411.033 34.465C411.267 34.881 411.553 35.089 411.891 35.089C412.385 35.089 412.814 34.92 413.178 34.582C413.256 34.504 413.334 34.465 413.412 34.465C413.542 34.465 413.646 34.504 413.724 34.582C413.828 34.66 413.88 34.764 413.88 34.894C413.88 35.206 413.646 35.609 413.178 36.103C412.684 36.571 412.164 36.922 411.618 37.156C411.072 37.416 410.5 37.546 409.902 37.546C408.446 37.546 407.237 36.805 406.275 35.323H406.197C405.339 36.103 404.559 36.662 403.857 37C403.181 37.364 402.453 37.546 401.673 37.546ZM404.013 35.011C404.299 35.011 404.533 34.972 404.715 34.894C404.897 34.79 405.079 34.634 405.261 34.426C405.339 34.322 405.404 34.192 405.456 34.036C405.508 33.854 405.534 33.646 405.534 33.412L405.651 30.604C405.651 30.344 405.612 30.175 405.534 30.097C405.456 30.019 405.365 29.98 405.261 29.98C405.209 29.98 405.144 29.993 405.066 30.019C404.988 30.045 404.897 30.084 404.793 30.136C404.039 30.5 403.48 30.877 403.116 31.267C402.752 31.631 402.57 32.229 402.57 33.061C402.57 33.815 402.726 34.335 403.038 34.621C403.35 34.881 403.675 35.011 404.013 35.011ZM415.341 37.117C415.159 37.117 414.977 37.078 414.795 37C414.639 36.896 414.561 36.753 414.561 36.571C414.561 36.363 414.652 36.207 414.834 36.103C415.016 35.973 415.224 35.869 415.458 35.791C415.848 35.661 416.186 35.518 416.472 35.362C416.784 35.18 416.94 34.829 416.94 34.309V25.378C416.94 24.806 416.849 24.325 416.667 23.935C416.511 23.545 416.199 23.298 415.731 23.194C415.627 23.168 415.523 23.103 415.419 22.999C415.341 22.895 415.302 22.726 415.302 22.492C415.302 22.128 415.432 21.907 415.692 21.829C416.576 21.621 417.538 21.348 418.578 21.01C419.644 20.646 420.554 20.269 421.308 19.879C421.412 19.827 421.529 19.762 421.659 19.684C421.789 19.606 421.906 19.567 422.01 19.567C422.166 19.567 422.257 19.619 422.283 19.723C422.335 19.801 422.361 19.905 422.361 20.035C422.361 20.243 422.322 20.581 422.244 21.049C422.192 21.491 422.166 21.894 422.166 22.258C422.166 22.362 422.166 22.479 422.166 22.609C422.192 22.739 422.218 22.817 422.244 22.843C423.128 21.985 424.025 21.322 424.935 20.854C425.845 20.386 426.898 20.152 428.094 20.152C429.446 20.152 430.577 20.659 431.487 21.673C432.423 22.661 432.891 24.013 432.891 25.729V34.309C432.891 34.829 433.034 35.18 433.32 35.362C433.632 35.518 433.983 35.661 434.373 35.791C434.581 35.869 434.763 35.973 434.919 36.103C435.075 36.207 435.153 36.363 435.153 36.571C435.153 36.753 435.075 36.896 434.919 37C434.789 37.078 434.646 37.117 434.49 37.117C433.97 37.117 433.476 37.091 433.008 37.039C432.566 37.013 432.124 36.987 431.682 36.961C431.266 36.935 430.824 36.922 430.356 36.922C429.914 36.922 429.472 36.935 429.03 36.961C428.588 36.987 428.146 37.013 427.704 37.039C427.262 37.091 426.781 37.117 426.261 37.117C426.105 37.117 425.949 37.078 425.793 37C425.663 36.896 425.598 36.753 425.598 36.571C425.598 36.363 425.676 36.207 425.832 36.103C425.988 35.973 426.17 35.869 426.378 35.791C426.768 35.661 427.093 35.518 427.353 35.362C427.613 35.18 427.743 34.829 427.743 34.309V26.548C427.743 25.56 427.509 24.793 427.041 24.247C426.599 23.675 426.001 23.376 425.247 23.35C424.675 23.35 424.168 23.441 423.726 23.623C423.284 23.805 422.829 24.052 422.361 24.364C422.257 24.468 422.179 24.585 422.127 24.715C422.075 24.845 422.049 24.975 422.049 25.105V34.309C422.049 34.829 422.192 35.18 422.478 35.362C422.764 35.518 423.089 35.661 423.453 35.791C423.973 35.947 424.233 36.207 424.233 36.571C424.233 36.727 424.168 36.857 424.038 36.961C423.908 37.065 423.752 37.117 423.57 37.117C423.05 37.117 422.569 37.091 422.127 37.039C421.685 37.013 421.269 36.987 420.879 36.961C420.489 36.935 420.06 36.922 419.592 36.922C419.15 36.922 418.695 36.935 418.227 36.961C417.785 36.987 417.317 37.013 416.823 37.039C416.355 37.091 415.861 37.117 415.341 37.117ZM443.726 37.546C442.01 37.546 440.723 37.117 439.865 36.259C439.007 35.375 438.578 34.14 438.578 32.554V23.584C438.578 23.35 438.487 23.181 438.305 23.077C438.149 22.973 437.837 22.908 437.369 22.882H436.862C436.68 22.882 436.524 22.739 436.394 22.453C436.29 22.141 436.238 21.868 436.238 21.634C436.238 21.582 436.251 21.517 436.277 21.439C436.329 21.335 436.394 21.27 436.472 21.244C437.096 21.01 437.759 20.659 438.461 20.191C439.189 19.697 439.878 19.177 440.528 18.631C441.204 18.085 441.75 17.63 442.166 17.266C442.348 17.136 442.504 17.019 442.634 16.915C442.764 16.811 442.933 16.759 443.141 16.759C443.375 16.759 443.544 16.811 443.648 16.915C443.752 16.993 443.778 17.201 443.726 17.539L443.492 19.84C443.466 20.152 443.531 20.373 443.687 20.503C443.869 20.607 444.116 20.659 444.428 20.659H449.069C449.147 20.659 449.225 20.75 449.303 20.932C449.381 21.114 449.42 21.283 449.42 21.439C449.42 21.803 449.368 22.154 449.264 22.492C449.16 22.83 449.043 22.999 448.913 22.999H445.286C444.688 22.999 444.272 23.077 444.038 23.233C443.83 23.363 443.726 23.61 443.726 23.974V31.345C443.726 32.541 443.947 33.438 444.389 34.036C444.857 34.608 445.468 34.894 446.222 34.894C446.976 34.894 447.522 34.816 447.86 34.66C448.224 34.504 448.549 34.374 448.835 34.27C448.939 34.218 449.017 34.192 449.069 34.192C449.199 34.192 449.303 34.27 449.381 34.426C449.459 34.582 449.498 34.764 449.498 34.972C449.498 35.128 449.225 35.414 448.679 35.83C448.133 36.246 447.418 36.636 446.534 37C445.676 37.364 444.74 37.546 443.726 37.546ZM459.053 37.546C457.493 37.546 456.089 37.195 454.841 36.493C453.593 35.791 452.592 34.829 451.838 33.607C451.11 32.359 450.746 30.955 450.746 29.395C450.746 28.147 450.98 26.964 451.448 25.846C451.916 24.728 452.566 23.74 453.398 22.882C454.23 22.024 455.205 21.348 456.323 20.854C457.441 20.36 458.637 20.113 459.911 20.113C461.523 20.113 462.979 20.49 464.279 21.244C465.579 21.998 466.606 22.999 467.36 24.247C468.14 25.469 468.53 26.808 468.53 28.264C468.53 29.928 468.166 31.475 467.438 32.905C466.736 34.309 465.683 35.44 464.279 36.298C462.901 37.13 461.159 37.546 459.053 37.546ZM459.833 35.83C460.379 35.83 460.847 35.726 461.237 35.518C461.653 35.284 461.991 34.946 462.251 34.504C462.563 33.984 462.771 33.282 462.875 32.398C463.005 31.488 463.07 30.422 463.07 29.2C463.07 27.796 462.914 26.548 462.602 25.456C462.29 24.338 461.848 23.454 461.276 22.804C460.73 22.154 460.08 21.829 459.326 21.829C458.91 21.829 458.533 21.907 458.195 22.063C457.857 22.193 457.558 22.388 457.298 22.648C456.856 23.168 456.544 23.909 456.362 24.871C456.206 25.833 456.128 27.016 456.128 28.42C456.128 29.668 456.284 30.864 456.596 32.008C456.934 33.126 457.376 34.049 457.922 34.777C458.494 35.479 459.131 35.83 459.833 35.83Z" fill="#181818"/>
</svg>
