<svg width="16" height="17" viewBox="0 0 16 17" fill="none" xmlns="http://www.w3.org/2000/svg">
<path fill-rule="evenodd" clip-rule="evenodd" d="M0 3.27703C0 2.82237 0.180612 2.38634 0.502103 2.06485C0.823594 1.74336 1.25963 1.56274 1.71429 1.56274H14.2857C14.7404 1.56274 15.1764 1.74336 15.4979 2.06485C15.8194 2.38634 16 2.82237 16 3.27703V3.66789L8.43771 8.71017C8.30571 8.78962 8.15405 8.8304 8 8.82789C7.84595 8.8304 7.69429 8.78962 7.56229 8.71017L0 3.66789V3.27703ZM0 5.38446V12.9913C0 13.446 0.180612 13.882 0.502103 14.2035C0.823594 14.525 1.25963 14.7056 1.71429 14.7056H14.2857C14.7404 14.7056 15.1764 14.525 15.4979 14.2035C15.8194 13.882 16 13.446 16 12.9913V5.38446L9.22629 9.90103L9.22057 9.9056C8.85592 10.1375 8.43213 10.2593 8 10.2565C7.57143 10.2565 7.13943 10.1399 6.77943 9.9056L6.77371 9.90103L0 5.38446Z" fill="#B52419"/>
</svg>
