<svg width="16" height="17" viewBox="0 0 16 17" fill="none" xmlns="http://www.w3.org/2000/svg">
<g clip-path="url(#clip0_22_4880)">
<path fill-rule="evenodd" clip-rule="evenodd" d="M7.99988 0.568606C12.1302 0.565177 15.5736 4.01546 15.5736 8.13775C15.5736 12.2635 12.1302 15.7035 7.99988 15.7012C6.91448 15.7018 5.84158 15.4695 4.8536 15.02L1.10503 15.6977C1.00552 15.716 0.902962 15.7075 0.807827 15.6731C0.712693 15.6387 0.628393 15.5796 0.56354 15.502C0.498687 15.4244 0.455607 15.3309 0.438701 15.2312C0.421795 15.1314 0.431668 15.029 0.467313 14.9343L1.5416 12.0795C0.817842 10.8916 0.434363 9.52763 0.433027 8.13661C0.43417 4.01432 3.87417 0.570892 7.99988 0.568606ZM11.7999 11.3526C10.9576 12.0337 9.6536 12.7217 8.40674 11.9217C6.77246 10.8715 5.3256 9.49203 4.27645 7.85661C3.66045 6.89889 4.23988 5.36518 5.10617 4.43032C5.45131 4.05661 6.02046 4.11603 6.39646 4.45889L7.18731 5.18118C7.42731 5.40061 7.43646 5.78232 7.28674 6.07261C7.05017 6.52746 6.91074 7.13889 7.20331 7.59489C7.57131 8.16632 8.02388 8.72975 9.10503 9.05775C9.43188 9.15832 9.85131 9.11489 10.2079 8.97089C10.5062 8.84975 10.8845 8.85089 11.105 9.08632L11.841 9.86918C12.2467 10.3012 12.2605 10.98 11.7999 11.3526Z" fill="#B52419"/>
</g>
<defs>
<clipPath id="clip0_22_4880">
<rect width="16" height="16" fill="white" transform="translate(0 0.134277)"/>
</clipPath>
</defs>
</svg>
